<?xml version="1.0" encoding="UTF-8" standalone="no"?>
<svg
   width="2284.3696"
   height="2284.3694"
   version="1.1"
   id="svg8"
   xmlns="http://www.w3.org/2000/svg"
   xmlns:svg="http://www.w3.org/2000/svg">
  <defs
     id="defs8" />
  <path
     d="m 2284.3696,1142.1848 c 0,630.8109 -511.3606,1142.1848 -1142.1715,1142.1848 C 511.38855,2284.3696 5.4199219e-6,1772.9957 5.4199219e-6,1142.1848 5.4199219e-6,511.37388 511.38855,1.3671875e-6 1142.1981,1.3671875e-6 1773.009,1.3671875e-6 2284.3696,511.37388 2284.3696,1142.1848"
     style="fill:#3972bc;fill-opacity:1;fill-rule:evenodd;stroke:none;stroke-width:0.13333"
     id="path1" />
  <path
     d="m 1557.7477,77.984718 c 200.195,111.890532 338.7649,325.831852 424.5494,532.026702 95.7443,230.11424 154.8628,503.62738 74.1715,747.20798 -67.345,203.3149 -214.4613,372.7907 -399.8967,478.5347 -207.1548,118.1304 -442.9622,149.3963 -678.68434,142.6498 -261.5828,-7.4798 -500.87281,-83.4113 -703.62374,-252.3537 C 188.92195,1654.9186 115.0078,1572.0274 51.233391,1481.403 195.69778,1946.578 629.50027,2284.3696 1142.1981,2284.3696 c 630.8109,0 1142.1715,-511.3739 1142.1715,-1142.1848 0,-484.20125 -301.2858,-897.97757 -726.6219,-1064.200082"
     style="fill:#2e5ab1;fill-opacity:1;fill-rule:evenodd;stroke:none;stroke-width:0.13333"
     id="path2" />
  <path
     d="m 481.79463,209.5681 c 32.79118,8.25312 65.38903,17.39956 98.44154,24.53272 28.06063,6.05318 45.1802,41.0123 79.87267,29.15927 8.45845,-2.87993 22.62876,3.58657 23.08742,-11.31972 0.43732,-14.61297 -11.83304,-16.57292 -23.82741,-17.26624 -17.44756,-0.99997 -37.1444,7.74648 -38.42037,-25.97268 -0.82798,-21.22614 -30.6459,-0.0933 -47.8068,-12.13303 27.21265,-26.626 52.27469,-49.66542 93.139,-45.07887 15.93694,1.79995 27.63931,5.30653 37.88439,18.55953 26.16601,33.87916 50.4934,36.34576 83.9139,10.23975 7.67714,-5.98652 15.74494,-17.06624 24.55139,-5.43987 8.16113,10.7464 -4.84788,16.63959 -11.11973,23.50608 -13.22767,14.47964 -28.76461,22.93276 -49.18543,20.86615 -17.78623,-1.79996 -24.77538,6.71983 -22.71277,24.39939 1.98928,17.1729 12.70768,17.18623 26.57134,17.59956 32.82718,0.93331 59.43584,-20.17283 91.50838,-23.41275 16.41159,-1.66663 24.04073,-18.99953 5.96918,-32.02587 -8.20379,-5.91985 -14.28098,-9.81308 -9.58909,-19.85283 4.13056,-8.79978 12.52635,-11.83971 21.66612,-11.94637 21.06214,-0.25333 42.12428,-0.08 62.58777,-0.08 5.80652,13.333 -4.87588,16.99958 -10.28108,21.94612 -10.58906,9.66642 -20.49948,17.91955 -12.06769,34.45247 7.53581,14.73297 20.48882,18.5462 34.24981,16.61292 19.04085,-2.71993 12.17569,-19.63951 11.34771,-30.13258 -1.81195,-22.9061 12.89035,-31.67921 29.62459,-36.90575 39.49373,-12.34635 80.02863,-22.11944 118.59973,1.99995 27.7726,17.35957 74.1581,14.11965 72.4782,65.86502 -0.44,12.49303 40.4656,6.85317 19.3995,34.9058 -12.1331,16.15959 -29.5726,8.78645 -44.8256,11.31972 -2.3999,0.38665 -6.0798,0.71998 -6.8265,2.23994 -31.8525,64.38506 -71.7582,5.15987 -112.3265,13.61299 13.6143,-23.23942 32.2592,-25.87935 46.2215,-35.29245 7.7732,-5.22653 21.3328,-7.41315 18.7329,-19.89283 -2.3866,-11.26639 -12.733,-19.49285 -24.1327,-20.43949 -24.6968,-2.06662 -50.4254,-4.09323 -73.07155,7.90647 -19.00352,10.07974 -31.69121,28.73261 -56.45592,33.18583 -8.49445,1.5333 -15.42228,29.51926 -30.01525,41.2523 -10.24908,8.2398 -19.63951,9.06644 -22.49944,-3.97323 -5.77052,-26.49267 -21.21813,-17.2129 -36.70175,-12.81301 -40.13499,11.35971 -73.15017,36.67908 -108.39329,57.0519 -24.51538,14.14632 -8.43179,35.55912 2.01595,51.47872 7.41582,11.27972 20.73282,17.77289 34.8058,19.73284 29.84325,4.11989 57.25324,9.73309 48.1188,51.01206 -1.61996,7.38648 2.09328,14.69296 11.78637,15.58627 10.16108,0.91998 17.48356,-3.9599 20.20216,-12.97301 9.39043,-31.21255 32.51519,-45.10554 62.16511,-51.50538 21.2648,-4.59988 16.37959,-21.81278 16.73425,-35.9591 1.65063,-68.26496 38.93636,-88.70445 99.85616,-54.89196 10.7557,5.97319 13.2863,14.06632 10.3798,24.73272 -9.0198,32.94584 10.4957,29.46593 30.6325,23.58607 8.2131,-2.41327 15.7196,-7.35981 23.3061,-11.62637 17.8129,-9.99975 25.8127,-4.0799 23.7594,15.31962 -2.8133,26.346 6.7065,43.65224 30.0259,58.06521 23.6528,14.6263 21.4128,38.21238 -3.8932,51.34538 -25.6527,13.31967 -22.7061,21.86612 0.2666,33.71916 12.0931,6.22651 35.8925,13.19967 22.1462,29.87925 -14.4797,17.55956 -36.9058,-0.69331 -55.2253,-5.47986 -14.213,-3.69324 -20.5728,-13.67966 -9.6664,-27.9993 5.9331,-7.82647 14.3463,-16.50625 3.3465,-25.4927 -8.8797,-7.23981 -15.0396,2.65327 -22.5727,6.17318 -18.5862,8.69312 -36.7351,12.34636 -54.536,-4.79988 -15.7023,-15.14628 -35.91111,-16.97291 -47.13483,3.82657 -14.42097,26.73267 22.14613,19.0262 26.20333,31.06589 -81.38861,31.30589 -140.4138,92.73102 -204.37087,147.08966 -2.83726,2.41327 -7.01449,4.93321 -7.62914,7.98647 -11.83838,58.26521 -67.38365,74.98479 -104.2054,109.2506 -16.30226,15.17295 -21.13547,31.47921 -20.17149,52.83868 0.43732,9.55976 15.36361,27.8793 -6.40651,29.2526 -13.15034,0.82665 -34.06715,-7.45315 -32.74452,-24.37272 3.06793,-39.34569 -22.5661,-33.4525 -44.87354,-31.94587 -38.98836,2.61327 -77.70072,-5.35987 -117.07041,11.8797 -46.31084,20.30616 -65.67036,56.71858 -82.3926,99.15752 -10.9744,27.86597 -1.85996,51.09206 18.38487,65.81167 19.01952,13.8263 44.52422,14.453 66.701,0.52 15.74494,-9.87975 30.71256,-21.02613 46.43084,-30.93255 7.50514,-4.71988 13.95832,-16.98624 25.25537,-6.53317 8.18113,7.57314 4.37989,17.45289 0.36399,24.19939 -19.82217,33.34583 -12.90101,51.07873 27.59797,52.11873 12.1717,0.3066 16.68225,8.1864 17.6409,19.6928 0.81731,9.8531 3.62391,19.5329 4.84254,29.3726 7.43315,59.8785 7.58915,58.5719 64.14506,68.4916 26.906,4.7466 41.11898,-8.7731 56.75859,-25.8927 40.05633,-43.8522 72.77951,-44.6388 114.49713,-2.4932 21.67146,21.8794 49.3841,19.3728 68.46763,6.8265 26.85266,-17.6663 43.07092,-7.8665 53.73732,12.2263 20.30216,38.1857 43.84287,61.3185 92.22707,56.3053 28.0153,-2.8933 32.4551,29.8126 41.7216,50.4387 7.3865,16.4263 -7.3332,41.0657 11.2397,51.9321 27.626,16.1729 57.8386,28.7859 91.0377,29.9192 8.6931,0.2933 17.4396,0.6133 26.106,0.013 33.5459,-2.3332 64.9451,-1.7066 79.3047,37.7324 2.4533,6.7199 12.3997,13.173 20.0529,15.1197 38.8523,9.893 32.8125,40.1323 15.1996,55.3719 -51.1454,44.2256 -46.9322,103.5841 -53.812,160.396 -4.8799,40.239 -32.5459,66.5583 -73.3182,66.625 -53.2787,0.093 -67.7316,16.4263 -53.4253,67.7983 8.3331,29.8793 4.0932,52.092 -17.9196,73.7982 -15.7729,15.5596 -32.4125,32.8391 -40.8923,52.692 -22.3594,52.372 -66.9143,70.2249 -116.18907,81.6913 -20.16616,4.6932 -31.05123,11.3997 -9.70243,26.4793 19.68218,13.9063 11.59838,23.8794 0.41199,35.5724 -18.14621,18.9862 -10.43307,32.6259 10.69174,38.0391 23.11407,5.9199 28.74997,17.3729 18.52617,37.2391 -13.81296,26.8126 -2.18792,43.7322 18.8689,59.9185 9.6611,7.4398 26.3167,15.4129 17.9889,32.2658 -6.6505,13.5064 -20.1969,2.68 -30.4939,4.1866 -52.81071,7.8131 -79.6487,-32.8259 -105.42406,-64.3184 -31.20722,-38.1724 -62.09178,-81.1446 -46.6295,-138.3565 4.24523,-15.6663 7.13582,-35.7191 -7.26515,-49.6121 -27.17132,-26.266 -33.61916,-57.7986 -20.03017,-91.0511 11.9517,-29.2526 -17.47423,-45.4789 -16.47425,-70.8249 1.41729,-35.9724 0.20799,-72.0515 0.25999,-108.0906 0.0893,-63.2918 -18.78486,-92.651 -78.21138,-112.3039 -20.43682,-6.7465 -29.64992,-15.3196 -34.44714,-36.9191 -6.86916,-31.0525 -34.38447,-50.5054 -53.70132,-74.1581 -42.8896,-52.5054 -36.72842,-132.7567 19.29152,-169.0891 33.27517,-21.5728 10.02508,-46.8922 11.8957,-69.9983 1.88529,-23.146 -21.11947,-19.1595 -33.31783,-18.6395 -46.51351,1.9733 -77.17541,-22.3461 -101.06414,-57.4386 -13.693,-20.1061 -31.70321,-29.2792 -54.27998,-34.9457 -19.94217,-4.9866 -46.22284,-1.4133 -50.88939,-33.0792 -1.32397,-9.0398 -15.79694,-9.3465 -22.8901,-6.3465 -34.53647,14.5996 -65.50369,-4.2933 -97.44023,-9.8264 -24.56739,-4.2533 -49.69209,-55.86532 -41.07764,-80.38471 4.42656,-12.54635 1.84395,-20.38615 -5.18787,-30.31924 -27.01932,-38.19904 -58.86253,-74.21148 -61.63313,-124.54355 -0.42665,-7.97314 -3.93723,-15.62628 -13.093,-14.83963 -12.03703,1.03997 -10.19841,11.47971 -11.13572,19.9995 -3.50525,32.1192 12.22369,56.70525 28.98327,81.98462 9.42243,14.21297 29.81792,35.41244 9.99442,48.51878 -22.07678,14.55964 -34.97779,-9.14643 -47.72281,-27.31931 -23.38475,-33.34584 -31.64454,-69.01161 -27.83797,-108.79728 1.56796,-16.26626 1.71463,-32.57252 -18.54087,-39.75901 C 102.8001,759.981 90.49241,742.98143 100.1855,714.42214 103.22142,705.46236 100.58549,699.64918 89.415103,702.96909 153.35084,539.05319 254.87897,401.73662 385.57837,285.25954 416.0416,258.11355 446.72884,230.99423 481.79463,209.5681 M 2026.7227,1852.5404 c -21.7995,3.1465 -33.9592,-4.5999 -30.6526,-28.2127 4.4799,-32.1325 -6.6665,-58.6385 -28.7193,-81.0246 -22.3061,-22.6528 -15.6529,-51.0254 -15.6796,-77.7447 -0.027,-20.5062 -0.96,-38.8924 -18.8662,-53.4254 -24.4527,-19.8261 -25.8527,-47.1988 -8.9331,-69.9049 34.4925,-46.3188 27.9593,-86.6512 -4.2799,-130.9967 -30.8525,-42.4523 -56.0653,-88.5445 -35.9458,-145.2364 4.4266,-12.453 1.44,-24.306 -16.4662,-26.346 -28.0793,-3.1599 -54.8253,-7.6131 -79.238,-26.4527 -13.413,-10.3464 -37.6791,-8.5997 -53.9187,0.12 -45.0122,24.1728 -94.8243,9.7198 -141.1698,20.9595 -3.3866,0.84 -8.3464,0.72 -10.9064,-1.1866 -42.3989,-31.3192 -72.9848,-73.9982 -105.064,-114.5572 -18.5062,-23.3994 -6.2399,-55.3319 -7.5065,-83.4379 -0.5067,-10.9197 10.6931,-16.3596 14.6796,-24.746 6.3065,-13.27969 22.1595,-27.49267 -6.1198,-40.71901 -19.4262,-9.10644 -23.5328,-30.5459 -0.32,-46.83883 20.3195,-14.23964 39.0657,-30.90589 60.1718,-43.81223 31.1059,-19.03953 52.932,-38.59904 50.0921,-81.74463 -2.3733,-35.73244 39.0524,-47.53214 61.4785,-46.11884 65.1717,4.10656 122.0769,-28.77262 185.1953,-31.37255 45.2122,-1.85329 47.9988,-4.06657 51.6121,39.65234 1.3466,16.06626 7.3465,24.25273 23.1461,28.58595 32.1058,8.83978 65.8117,12.82635 95.1176,30.9059 9.1198,5.59986 17.3062,4.90654 23.2794,-8.25313 12.0397,-26.53267 45.8122,-39.23902 67.865,-19.37285 42.5056,38.33237 91.091,32.23919 140.2765,31.10589 100.5308,377.95059 31.9458,721.56859 -209.1281,1030.17429"
     style="fill:#87d37f;fill-opacity:1;fill-rule:evenodd;stroke:none;stroke-width:0.13333"
     id="path3" />
  <path
     d="m 2205.7449,725.28854 c -70.5316,1.54662 -74.6782,-0.74665 -88.9978,-64.3584 -4.0532,-17.97288 -11.3331,-15.46628 -22.9461,-9.19977 -8.2665,4.43989 -11.1331,12.13303 -15.453,19.81284 -6.7998,12.13303 -0.3466,37.77239 -17.0395,35.63911 -18.4662,-2.35994 -36.8924,-22.87943 -36.9591,-42.17228 -0.1467,-36.97241 -23.9727,-54.61197 -47.5055,-74.30481 -4.7199,-3.93323 -9.2664,-9.41309 -14.7596,-10.86639 -14.373,-3.77324 -34.0258,-8.86645 -41.999,2.89326 -9.1464,13.50633 0.6534,31.58588 13.013,42.39894 11.0264,9.65309 24.9061,16.1596 37.8524,23.42608 11.3464,6.38651 21.2128,11.62638 14.773,28.42596 -5.3865,14.18631 0.08,33.19917 -21.2395,39.03902 -16.4396,4.50655 -29.0126,1.70662 -36.7991,-14.5863 6.9865,-8.61312 16.7596,-3.27992 24.3994,-6.30651 14.053,-5.58653 17.3729,-12.42636 4.0399,-23.66608 -26.9993,-22.79943 -64.0784,-33.26583 -82.3046,-66.99832 -0.9466,-1.74662 -6.8931,-2.45327 -9.5597,-1.35997 -49.9455,20.59949 -100.5709,38.23905 -123.6636,96.13093 -14.133,35.50578 -110.9306,36.59909 -126.2235,2.17328 -10.3331,-23.30608 -14.213,-52.87868 1.5999,-75.31811 13.333,-18.91953 38.7991,-19.05286 61.0518,-18.27955 10.9731,0.37333 21.7328,4.57322 32.6926,6.23985 9.2131,1.39996 16.9062,-0.75998 20.9461,-10.89306 3.6266,-9.10644 1.8666,-14.87963 -4.5732,-22.97276 -23.7061,-29.77259 -14.333,-52.18537 23.5327,-55.10529 19.5329,-1.50663 34.6392,-8.57312 42.359,-25.18604 18.2528,-39.27902 49.2654,-48.09213 88.6378,-42.47894 10.053,1.42663 25.3593,7.11982 29.3592,-6.47984 3.1599,-10.83972 0.8,-25.50602 -4.2265,-36.01243 -7.3332,-15.30628 -19.9195,-2.31994 -28.986,0.31999 -11.333,3.29325 -19.1195,4.2799 -23.4661,-8.42645 -4.5865,-13.35967 -12.7596,-20.63949 -26.5326,-27.47932 -23.7061,-11.81303 -14.6397,-40.43898 16.1596,-55.34528 21.1994,-10.27974 51.0387,-10.7464 51.3053,-44.94554 115.7838,108.27729 212.8214,230.5009 279.6064,375.25728 10.8664,23.55941 21.2928,47.31882 31.9059,70.9849"
     style="fill:#87d37f;fill-opacity:1;fill-rule:evenodd;stroke:none;stroke-width:0.13333"
     id="path4" />
  <path
     d="m 1720.9303,509.96059 c -10.1064,-2.23995 -26.7327,6.41317 -31.9192,-7.82648 -4.5999,-12.62635 4.2799,-23.23941 15.4663,-33.89248 24.4794,-23.34608 -5.8532,-28.93261 -17.2129,-39.65234 -7.9198,-7.47982 -20.3595,-11.89304 -15.1863,-26.23935 3.5999,-9.94642 11.1464,-16.37292 21.7195,-18.35954 13.133,-2.45327 24.026,-2.59993 27.8793,15.02629 6.7065,30.8259 18.5328,59.15852 48.2121,75.77144 11.9197,6.65317 6.0665,13.453 0.32,20.82615 -12.7197,16.27959 -30.7726,13.51966 -49.2788,14.34631"
     style="fill:#87d37f;fill-opacity:1;fill-rule:evenodd;stroke:none;stroke-width:0.13333"
     id="path5" />
  <path
     d="m 1627.0927,494.86763 c -3.2133,-0.55999 -7.2799,-0.31999 -10.3464,-1.97328 -7.9732,-4.29323 -8.4265,-12.66635 -5.6799,-19.30619 8.7198,-20.89281 19.7995,-40.10566 46.0255,-42.14561 10.4664,-0.81331 20.1595,1.71996 24.3194,12.30636 5.0665,12.93301 -3.2532,20.61282 -12.9063,27.27932 -13.0264,8.98644 -24.0261,21.41279 -41.4123,23.8394 m -557.6928,79.19802 c -0.52,12.33302 -12.6663,16.71958 -18.6808,25.2527 -6.1465,8.71978 -17.1196,9.95975 -26.8127,5.09321 -3.6092,-1.81329 -8.0411,-7.90647 -7.4478,-11.18639 2.2506,-12.25303 13.641,-8.14646 21.2181,-8.71978 11.6251,-0.89331 15.6143,-22.8261 31.7232,-10.43974 m -91.39368,38.7857 c -7.47315,-1.14664 -10.83706,-6.07985 -8.63978,-12.77302 1.3493,-4.0399 5.65052,-9.54643 9.08244,-9.90642 6.81316,-0.73331 10.36507,5.03988 10.78106,11.71971 0.50532,7.71981 -4.08256,10.7464 -11.22372,10.95973"
     style="fill:#87d37f;fill-opacity:1;fill-rule:evenodd;stroke:none;stroke-width:0.13333"
     id="path6" />
  <path
     d="m 1019.1932,2153.2262 c -21.05682,-16.1863 -32.68186,-33.1059 -18.8689,-59.9185 10.2238,-19.8662 4.5879,-31.3192 -18.52617,-37.2391 -21.12481,-5.4132 -28.83795,-19.0529 -10.69174,-38.0391 11.18639,-11.693 19.27019,-21.6661 -0.41199,-35.5724 -2.34394,-1.6533 -4.23989,-3.1866 -5.82252,-4.6399 -36.13509,-1.3599 -71.82087,-4.0799 -107.04399,-8.1464 -0.48932,6.0131 -1.72395,11.9463 -3.19325,17.3329 -15.46228,57.2119 15.42228,100.1841 46.6295,138.3565 25.77536,31.4925 52.61335,72.1315 105.42406,64.3184 10.297,-1.5066 23.8434,9.3198 30.4939,-4.1866 8.3278,-16.8529 -8.3278,-24.826 -17.9889,-32.2658 M 2235.8508,822.36611 c -49.1855,1.1333 -97.7709,7.22648 -140.2765,-31.10589 -14.7596,-13.293 -34.7192,-11.94637 -49.9588,-1.69329 53.2387,185.43536 71.3716,384.95037 10.8531,567.65247 -29.7059,89.6511 -74.9581,172.7157 -132.13,246.6472 2.4532,2.8532 5.2132,5.6398 8.4664,8.2664 17.9062,14.533 18.8395,32.9192 18.8662,53.4254 0.027,26.7193 -6.6265,55.0919 15.6796,77.7447 22.0528,22.3861 33.1992,48.8921 28.7193,81.0246 -3.3066,23.6128 14.8663,36.2791 36.6524,33.1459 241.074,-308.6057 303.6591,-657.1569 203.1283,-1035.10749 M 2173.839,654.30364 c -66.785,-144.75638 -163.8226,-266.97999 -279.6064,-375.25728 -0.2666,34.19914 -30.1059,34.6658 -51.3053,44.94554 -4.8799,2.35994 -9.1331,5.09321 -12.8664,7.9998 18.6796,26.15935 36.3058,53.07867 52.8787,80.53132 7.9998,-4.15989 17.0262,-9.65309 22.8128,2.39994 5.0265,10.50641 7.3864,25.17271 4.2265,36.01243 -0.5466,1.82663 -1.3199,3.25326 -2.2266,4.45323 23.9994,43.23892 45.5189,87.35781 64.6251,131.31671 1.4933,1.38664 2.9732,2.75993 4.4665,3.9999 23.5328,19.69284 47.3588,37.3324 47.5055,74.30481 0.067,19.29285 18.4929,39.81234 36.9591,42.17228 16.6929,2.13328 10.2397,-23.50608 17.0395,-35.63911 4.3199,-7.67981 7.1865,-15.37295 15.453,-19.81284 11.613,-6.26651 18.8929,-8.77311 22.9461,9.19977 14.3196,63.61175 18.4662,65.90502 88.9978,64.3584 -10.6131,-23.66608 -21.0395,-47.42549 -31.9059,-70.9849"
     style="fill:#74c375;fill-opacity:1;fill-rule:evenodd;stroke:none;stroke-width:0.13333"
     id="path7" />
  <path
     d="m 217.01058,588.74528 c 15.89027,-47.67881 43.28558,-92.54435 72.68485,-132.99667 34.69247,-47.70548 75.8221,-91.62438 120.74231,-129.79676 21.06748,-17.87955 43.91091,-34.43914 67.68098,-48.50545 9.34777,-5.51986 18.7702,-10.93306 28.40996,-15.94627 9.0731,-4.73321 21.35946,4.30656 13.65565,13.97298 -3.23325,5.42654 -8.57178,10.30641 -12.71834,15.0263 -9.31711,10.23974 -18.89953,20.27949 -27.9993,30.70589 -19.71818,22.63944 -39.39902,45.27887 -59.03453,67.98497 -36.95774,42.71893 -71.85687,87.22449 -109.41326,129.4101 -18.10488,20.33282 -36.44176,40.35899 -55.53062,59.77184 -7.04115,7.15982 -14.27564,14.21298 -21.94211,20.69281 -7.57848,6.39984 -19.72351,-0.19999 -16.53559,-10.31974 M 141.5378,712.0622 c -2.34794,0 3.41725,-26.38601 4.26123,-28.74595 4.58788,-12.77301 12.13436,-24.55938 20.78481,-34.95912 6.25051,-7.51982 40.91631,-41.94562 43.05626,-12.93301 1.56263,21.23946 -12.03037,46.70549 -24.68605,62.67843 -7.14116,8.99977 -15.71828,17.82622 -26.06735,23.09275 -7.31715,3.70658 -16.38492,-0.86664 -17.3489,-9.1331 0,0 0.14666,1.18664 0,0"
     style="fill:#b7e4ac;fill-opacity:1;fill-rule:nonzero;stroke:none;stroke-width:0.13333"
     id="path8" />
</svg>
