<?xml version="1.0" encoding="UTF-8" standalone="no"?>
<svg
   width="4038.0188"
   height="3696.0459"
   version="1.1"
   id="svg28"
   xmlns="http://www.w3.org/2000/svg"
   xmlns:svg="http://www.w3.org/2000/svg">
  <defs
     id="defs28" />
  <path
     d="m 4019.4237,1799.6125 c -8.5065,-275.9264 -328.4052,-281.3529 -402.79,-568.6657 -5.2798,-20.4262 -15.2796,-39.3191 -28.8926,-55.4387 -59.5318,-70.4515 -126.1168,-151.8228 -180.9021,-225.00766 -12.0131,-16.0396 -20.1462,-34.51914 -24.7727,-54.02532 -2.2533,-9.51976 -4.7866,-19.02619 -7.6132,-28.51929 -5.1732,-17.2929 -11.3064,-34.22581 -18.3062,-50.78539 -3.6266,-8.59979 -6.2132,-17.59956 -7.9198,-26.77267 -8.2398,-44.39889 -21.1995,-88.0778 -49.1988,-123.63691 -91.7577,-116.51708 -442.2822,-164.90254 -458.3218,-313.31216 -13.9863,-129.34344 -75.3581,-195.51512 -158.4894,-234.22081 -37.0257,-17.23957 -119.877,-63.878407 -166.5558,-80.611322 -5.3199,-1.906619 -10.5198,-4.039899 -15.5063,-6.706499 -21.7861,-11.679708 -98.3976,-36.7457482 -226.4744,26.066015 -37.879,18.572869 -82.1312,20.746148 -120.5969,3.413248 -37.6924,-16.972909 -65.6251,-15.799605 -130.3834,-29.239269 -156.0895,-32.38585721 -330.6451,0.93331 -473.3482,67.358316 -83.1313,38.705701 -161.7693,69.611591 -248.0338,101.290801 -85.1712,31.27922 -130.2234,-0.58665 -263.6468,87.11782 -124.7435,81.99795 -263.11338,146.35634 -354.85775,262.87343 -41.85229,53.132 -82.07795,130.10341 -91.18439,194.79513 -0.11999,0.87998 -0.17333,1.82662 -0.15999,2.81326 0.47998,34.87913 -8.02647,69.21161 -29.13261,96.98424 -83.26458,109.5306 -178.64887,193.11514 -260.46149,312.64554 -24.86204,36.3324 -45.07887,74.7048 -61.26513,114.5438 -14.03832,34.5458 -41.27097,62.5718 -75.73144,76.8247 -107.297319,44.3723 -128.34346,152.7695 -145.109707,267.8733 -1.493296,10.2531 -1.817288,20.5862 -1.043974,30.9193 6.77183,90.3177 -3.390582,229.0742 39.775005,303.499 1.379966,31.5193 226.007686,83.5446 230.507566,114.6505 14.76764,102.1041 47.63081,200.6883 107.05333,287.4995 88.30446,129.0101 207.07482,230.2876 296.57925,355.2178 15.26629,21.3061 18.5462,44.5722 28.21263,67.8649 5.42653,13.0264 18.5862,28.386 20.51949,42.3456 9.10643,64.6918 15.53294,112.9839 -4.06657,177.7156 -21.63946,71.4382 121.13031,174.3156 172.46236,215.5813 65.07837,52.3187 172.24902,89.3444 250.83372,117.4104 85.6112,30.5859 147.8096,-62.3185 232.9808,-31.0392 65.6117,24.0794 126.6102,68.7316 188.622,105.784 21.1328,16.9062 54.332,31.0792 63.8651,54.6119 11.3863,28.1593 18.7595,58.0653 33.3858,84.6913 34.3458,62.5584 104.5974,98.3042 174.8756,110.7039 55.8253,9.853 113.0105,7.3198 169.6358,4.7332 42.2256,-1.92 84.4645,-3.8399 126.6902,-5.7599 35.6257,-1.6133 72.9181,-3.7199 103.4507,-22.1328 29.1859,-17.5995 48.3988,-48.0921 61.1718,-79.6913 12.7597,-31.5992 20.0928,-65.1184 31.8392,-97.1176 6.7732,-18.4528 15.0663,-36.3324 24.6661,-53.492 37.159,-12.853 64.1717,-22.4927 69.2116,-24.0927 35.6391,-11.3597 52.812,-65.4784 85.6645,-80.7846 83.1312,-38.7057 163.6892,-81.758 249.9671,-113.4239 94.3709,56.9853 219.1012,-19.8261 297.2725,-66.2517 122.877,-72.9581 232.4476,-189.3819 324.2053,-305.8856 27.9993,-35.5592 36.0657,-44.9589 44.3055,-89.3445 1.7066,-9.1864 4.2933,-18.1862 7.9332,-26.786 6.9998,-16.5596 29.7992,-37.0124 34.9591,-54.3053 2.8266,-9.4797 4.2265,-63.7984 16.8129,-79.9713 74.2381,-95.451 163.2892,-179.0755 238.0607,-275.9531 16.8129,-21.7861 40.439,-36.7058 66.3984,-45.8655 85.6111,-30.2393 230.5275,-270.7666 212.848,-438.9891"
     style="fill:#be6c3b;fill-opacity:1;fill-rule:nonzero;stroke:none;stroke-width:0.13333"
     id="path2" />
  <path
     d="m 3135.0324,2699.0834 c -86.2778,31.6659 -166.8358,74.7181 -249.967,113.4238 -32.8526,15.3063 -50.0255,69.4249 -85.6646,80.7847 -5.0398,1.5999 -32.0525,11.2397 -69.2116,24.0927 -9.5997,17.1596 -17.8929,35.0391 -24.666,53.492 -11.7464,31.9992 -19.0795,65.5184 -31.8392,97.1176 -12.773,31.5992 -31.9859,62.0917 -61.1718,79.6913 -30.5326,18.4129 -67.825,20.5195 -103.4508,22.1328 -42.2256,1.9199 -84.4645,3.8399 -126.6901,5.7732 -56.6253,2.5732 -113.8105,5.1198 -169.6358,-4.7466 -70.2782,-12.3997 -140.5298,-48.1454 -174.889,-110.7039 -14.6129,-26.626 -21.9861,-56.5319 -33.3858,-84.6912 -9.5198,-23.5327 -42.7323,-37.7057 -63.8517,-54.612 -62.0118,-37.0524 -123.0103,-81.7046 -188.622,-105.784 -85.1712,-31.2792 -147.3696,61.6251 -232.9808,31.0392 -78.5847,-28.0659 -185.7554,-65.0917 -250.8338,-117.4104 -51.332,-41.2656 -194.1018,-144.143 -172.4623,-215.5812 19.5995,-64.7317 13.173,-113.0239 4.0666,-177.7156 -1.9333,-13.9596 -15.093,-29.3193 -20.5195,-42.3456 -9.6665,-23.2927 -12.9464,-46.5588 -28.2127,-67.865 -89.50439,-124.9302 -208.27475,-226.2076 -296.57921,-355.2178 -59.42518,-86.8111 -92.29102,-185.3953 -107.05066,-287.4994 -4.50655,-31.1059 -229.1276,-83.1313 -230.51423,-114.6505 -43.15892,-74.4248 -32.99918,-213.1813 -39.77234,-303.4991 -0.77332,-10.3331 -0.45332,-20.6661 1.03997,-30.9192 4.71988,-32.3992 9.78642,-64.2651 17.01291,-94.331 -32.06586,36.9058 -63.58908,75.5581 -93.30567,118.9704 -24.86204,36.3324 -45.07887,74.7048 -61.26513,114.5438 -14.03832,34.5458 -41.27097,62.5718 -75.73144,76.8247 -107.297319,44.3723 -128.34346,152.7695 -145.109707,267.8733 -1.493296,10.2531 -1.817288,20.5862 -1.043974,30.9193 6.77183,90.3177 -3.390582,229.0742 39.775005,303.499 1.379966,31.5193 226.007686,83.5446 230.507566,114.6505 14.76764,102.1041 47.63081,200.6883 107.05333,287.4995 88.30446,129.0101 207.07482,230.2876 296.57925,355.2178 15.26629,21.3061 18.5462,44.5722 28.22596,67.8649 5.4132,13.0264 18.57287,28.386 20.50616,42.3456 9.10643,64.6918 15.53294,112.9839 -4.06657,177.7156 -21.63946,71.4382 121.13031,174.3156 172.46236,215.5813 65.07837,52.3187 172.24902,89.3444 250.83372,117.4104 85.6245,30.5859 147.8096,-62.3185 232.9808,-31.0392 65.6117,24.0794 126.6102,68.7316 188.622,105.784 21.1328,16.9062 54.332,31.0792 63.8651,54.6119 11.3863,28.1593 18.7595,58.0653 33.3858,84.6913 34.3458,62.5584 104.5974,98.3042 174.8756,110.7039 55.8253,9.853 113.0105,7.3198 169.6358,4.7332 42.2256,-1.92 84.4645,-3.8399 126.6902,-5.7599 35.6257,-1.6133 72.9181,-3.7199 103.4507,-22.1328 29.1859,-17.5995 48.3988,-48.0921 61.1718,-79.6913 12.7597,-31.5992 20.0928,-65.1184 31.8392,-97.1176 6.7732,-18.4528 15.0663,-36.3324 24.6661,-53.492 37.159,-12.853 64.1717,-22.4927 69.2116,-24.0927 35.6391,-11.3597 52.812,-65.4784 85.6645,-80.7846 83.1312,-38.7057 163.6892,-81.758 249.9671,-113.4239 94.3709,56.9853 219.1012,-19.8261 297.2725,-66.2517 122.877,-72.9581 232.4476,-189.3819 324.2053,-305.8856 27.9993,-35.5592 36.0657,-44.9589 44.3055,-89.3445 1.7066,-9.1864 4.2933,-18.1862 7.9332,-26.786 6.9998,-16.5596 29.7992,-37.0124 34.9591,-54.3053 1.6799,-5.6132 2.8666,-26.9326 6.1598,-46.7455 -19.3595,14.0663 -39.0657,27.2527 -59.1585,39.1857 -78.1714,46.4255 -202.9016,123.2369 -297.2726,66.2517"
     style="fill:#834b33;fill-opacity:1;fill-rule:nonzero;stroke:none;stroke-width:0.13333"
     id="path3" />
  <path
     d="M 660.28098,674.14735 C 742.09227,554.617 837.47655,471.03242 920.74113,361.50183 c 0.43999,-0.59999 0.79998,-1.22664 1.23997,-1.82662 -88.75778,54.13198 -175.27561,109.97058 -239.16735,191.11522 -41.85229,53.132 -82.07795,130.10341 -91.18439,194.79513 -0.11999,0.87998 -0.17333,1.82662 -0.15999,2.81326 0.41332,29.58593 -5.74653,58.73187 -20.47949,83.86457 11.81304,-12.59968 21.42613,-27.31931 28.02596,-43.57224 16.18627,-39.83901 36.39909,-78.21138 61.26514,-114.5438"
     style="fill:#be6c3b;fill-opacity:1;fill-rule:nonzero;stroke:none;stroke-width:0.13333"
     id="path4" />
  <path
     d="M 660.28098,674.14735 C 742.09227,554.617 837.47655,471.03242 920.74113,361.50183 c 0.43999,-0.59999 0.79998,-1.22664 1.23997,-1.82662 -88.75778,54.13198 -175.27561,109.97058 -239.16735,191.11522 -41.85229,53.132 -82.07795,130.10341 -91.18439,194.79513 -0.11999,0.87998 -0.17333,1.82662 -0.15999,2.81326 0.41332,29.58593 -5.74653,58.73187 -20.47949,83.86457 11.81304,-12.59968 21.42613,-27.31931 28.02596,-43.57224 16.18627,-39.83901 36.39909,-78.21138 61.26514,-114.5438 z"
     style="fill:none;stroke:#000000;stroke-width:6.6665;stroke-linecap:butt;stroke-linejoin:miter;stroke-miterlimit:10;stroke-dasharray:none;stroke-opacity:1"
     id="path5" />
  <path
     d="m 1146.3088,266.06421 c -3.1066,0.59999 -6.9598,5.07988 -5.1732,7.75981 -11.293,-16.69292 -302.71241,206.90149 -322.04526,224.87438 -62.98509,58.37187 -138.03655,121.1303 -189.10194,193.3685 -1.58662,-9.07978 -2.65326,-19.37285 -2.94659,-31.9192 0.55999,-0.98665 1.14664,-1.98662 1.65329,-2.95993 86.9445,-135.50328 193.78182,-239.66068 333.23167,-318.68537 48.22543,-27.31931 97.27753,-53.18533 146.14303,-79.15802 39.6257,-21.01281 46.7055,-13.07967 38.239,6.71983 z m 151.9296,-68.42495 c -16.3063,8.23979 -72.6249,8.89311 -110.2373,21.93278 -15.6796,-25.39936 -74.7314,5.4532 -94.1443,15.73294 -107.98396,57.38524 -213.62132,114.38381 -307.7523,194.59514 -45.58553,38.81236 -80.18466,78.22471 -110.34391,122.10361 -52.23869,58.93186 -106.67733,134.71663 -100.81081,200.00834 0.0267,0.18666 0.08,0.31999 0.08,0.31999 -0.24,14.49297 3.50658,29.66592 6.7065,42.91892 4.86654,19.97284 -0.0933,41.67896 6.73316,61.78513 3.01326,8.71978 15.05296,-4.53322 14.73297,-10.13308 -1.06664,-19.41285 4.18656,-41.5723 7.73314,-60.62515 0.95997,-5.22654 0.51998,-11.11973 -0.0133,-16.95958 20.63949,-3.8799 46.45218,-15.49295 67.53165,-26.42601 1.58663,6.15985 3.63991,12.54636 6.02651,19.39952 6.95983,20.18616 10.97306,40.75898 15.70628,61.62512 4.29322,18.97286 16.10626,48.79878 13.51966,68.69162 -1.61329,12.33303 13.77299,4.27989 15.94627,-2.61327 9.1731,-29.69259 1.82662,-67.01166 1.02664,-97.75755 -0.49332,-19.75951 -2.34661,-37.69239 -6.85316,-56.91858 -1.27997,-5.42653 -1.83996,-11.17305 -2.23995,-16.97291 66.865,-39.21235 129.2901,-91.26438 187.96864,-146.39634 1.75995,2.09328 3.53324,4.22656 5.2132,6.41317 12.06637,15.78628 24.06607,31.01256 34.89246,47.86547 4.47989,6.91983 15.78627,-4.30656 12.78635,-10.49307 -8.26646,-16.91957 -16.62625,-33.66582 -26.97266,-49.4121 -2.45327,-3.85323 -4.86655,-8.02646 -7.15982,-12.27969 3.41325,-3.30658 6.95982,-6.63983 10.41307,-10.01308 9.79976,13.93298 21.26614,27.29265 29.11927,39.85234 20.93281,33.37249 40.58564,68.87827 67.13164,97.97088 4.9999,5.47986 14.7996,-6.6265 12.3597,-12.14636 -16.493,-37.59906 -26.946,-77.02474 -45.6656,-113.75716 -6.70641,-13.19967 -15.86619,-31.73254 -26.31926,-48.1188 13.38633,-13.55966 26.74596,-27.06599 39.79896,-40.45232 11.6397,-11.9197 22.9994,-24.30606 34.1058,-36.94574 33.2525,-32.59919 65.0384,-66.65167 93.9577,-102.46411 2.3999,-2.91992 4.2265,-6.09318 5.7065,-9.22643 9.7864,0.57332 20.2662,-0.74665 29.1193,-0.16 22.4394,1.47996 44.6255,6.39984 66.985,9.31977 6.1198,0.77331 15.9462,-13.65299 7.9464,-16.31959 -24.1327,-8.09313 -57.4252,-25.99935 -86.4778,-26.866 1.1866,-1.47996 2.3733,-3.09325 3.5599,-4.66655 3.0933,-0.37332 6.3998,-1.23997 9.2931,-1.95995 15.4263,-3.98657 32.3325,0.46666 48.1855,0.66665 3.0666,0.04 8.7197,-7.8798 4.2665,-8.75978 -14.5063,-2.95993 -29.1059,-8.14646 -43.7989,-9.77309 37.8791,-15.61294 81.4113,-23.82607 113.1972,-50.5454 5.2399,-4.37323 6.5598,-16.87958 -2.9599,-12.0397 M 3380.2396,2782.548 c -1.3466,2.8666 -6.6131,5.5332 -8.7864,3.1466 13.493,14.9862 -273.7132,243.9805 -295.8059,258.4202 -71.8249,47.0655 -150.8096,104.7973 -233.2209,136.9699 8.4265,3.7199 18.1596,7.2398 30.2659,10.533 1.0933,-0.2933 2.2,-0.6266 3.28,-0.8799 152.4495,-51.7587 279.273,-130.3568 389.5635,-246.6872 38.1191,-40.2123 75.0382,-81.6113 112.0106,-122.7836 29.9459,-33.3858 23.9327,-42.1723 2.6932,-38.719 z m 102.9841,-130.9834 c -11.9197,13.8396 -26.106,68.3449 -47.8254,101.7174 20.8661,21.3195 -23.2928,71.2116 -37.9458,87.5845 -81.6912,90.9844 -162.4626,179.7822 -262.98,251.8204 -48.6388,34.9058 -95.2243,58.9985 -145.0897,77.6914 -69.7716,36.5191 -156.4228,71.1049 -218.3946,49.6921 -0.1733,-0.067 -0.28,-0.16 -0.28,-0.16 -14.133,-3.2666 -27.9593,-10.5464 -40.0523,-16.8529 -18.2129,-9.5198 -40.479,-9.9465 -58.3452,-21.4128 -7.7332,-5.0133 8.0398,-13.5197 13.3863,-11.8531 18.5862,5.7065 41.359,5.9465 60.7052,7.0932 5.3065,0.32 10.9197,2.1866 16.4529,4.1065 8.7464,-19.1061 26.226,-41.3723 41.9189,-59.1851 -5.6132,-3.0266 -11.3064,-6.5599 -17.3862,-10.5198 -17.9062,-11.6264 -36.9191,-20.4661 -56.0253,-30.0926 -17.3729,-8.7331 -43.4789,-27.3859 -63.425,-29.6526 -12.3464,-1.4133 -0.8267,-14.4129 6.3998,-14.8663 31.0126,-1.7466 65.465,14.3864 95.1176,22.5595 19.0529,5.2265 36.0258,11.3597 53.5987,20.3595 4.9465,2.5466 10.3864,4.4799 15.9329,6.2532 54.1587,-55.452 119.7037,-103.5041 187.3553,-147.183 -1.6133,-2.2133 -3.2666,-4.4399 -4.9865,-6.5999 -12.413,-15.5062 -24.2927,-30.8259 -38.0524,-45.3855 -5.6399,-6.0132 7.9865,-14.293 13.2663,-9.8798 14.4397,12.0931 28.666,24.2394 41.4657,38.0658 3.1466,3.3065 6.6265,6.6665 10.1864,9.9064 4.0399,-2.52 8.1331,-5.1466 12.2397,-7.6932 -11.1597,-12.8663 -21.3728,-27.2126 -31.6659,-37.8657 -27.346,-28.3459 -57.0786,-55.9719 -78.9314,-88.7311 -4.1065,-6.1865 9.9998,-12.773 14.7597,-9.0798 32.5325,25.0527 68.2916,44.6922 99.4242,71.7182 11.1997,9.6798 26.9726,23.0261 40.3589,37.1191 16.3863,-9.7197 32.7192,-19.4262 48.8522,-28.8793 14.3596,-8.4264 29.1326,-16.4662 44.0655,-24.1994 39.6524,-24.4127 80.358,-47.0788 122.077,-66.5183 3.4132,-1.6266 6.9331,-2.6399 10.333,-3.3199 1.8,-9.6264 5.5999,-19.4929 7.1599,-28.226 3.9732,-22.1328 4.5465,-44.8522 7.0931,-67.2516 0.72,-6.1199 17.0929,-12.1864 17.7596,-3.7866 2.0399,25.3727 11.3997,61.9984 5.2398,90.4111 1.72,-0.8133 3.5733,-1.56 5.3866,-2.3333 1.1199,-2.9199 2.7466,-5.9199 4.1332,-8.5465 7.5998,-14.0263 7.3465,-31.5058 10.9731,-46.9321 0.6933,-2.9866 9.7464,-6.5599 9.5331,-2.0266 -0.64,14.7863 0.8933,30.1992 -1.0667,44.8522 24.2661,-32.9992 42.7323,-73.2649 76.3181,-97.6909 5.4932,-4.0266 17.9596,-2.2933 10.9597,5.7732"
     style="fill:#000000;fill-opacity:1;fill-rule:nonzero;stroke:none;stroke-width:0.13333"
     id="path6" />
  <path
     d="m 1304.2515,1356.8236 c -65.785,-18.8129 -201.6616,-87.8378 -194.0084,-172.3957 0.1466,-1.5866 0.4533,-3.0532 0.7199,-4.5332 -19.2128,5.1999 -33.1458,16.9196 -35.1324,38.959 -7.6665,84.5579 128.2101,153.5829 193.9951,172.3957 50.7054,14.493 98.6642,10.7331 107.8907,-29.6392 -20.0529,5.4798 -46.3589,2.9732 -73.4649,-4.7866"
     style="fill:#4f292a;fill-opacity:1;fill-rule:nonzero;stroke:none;stroke-width:0.13333"
     id="path7" />
  <path
     d="m 1376.7164,1323.6511 c -17.6662,-83.5579 -129.8901,-168.4624 -214.2613,-146.5697 -0.36,0.12 -0.7733,0.3734 -1.2266,0.5867 -17.8796,-1.9466 -35.6125,-1.7466 -50.2655,2.2266 -0.2666,1.48 -0.5733,2.9466 -0.7199,4.5332 -7.6532,84.5579 128.2234,153.5828 194.0084,172.3957 27.106,7.7598 53.412,10.2664 73.4649,4.7866 2.3333,-10.2131 2.2266,-22.7328 -1,-37.9591"
     style="fill:#824b2f;fill-opacity:1;fill-rule:nonzero;stroke:none;stroke-width:0.13333"
     id="path8" />
  <path
     d="m 3963.6917,1661.3227 c 110.2773,151.4762 2.6,342.3381 -80.7313,480.2013 -44.1189,72.9848 -117.0371,129.8234 -198.6617,83.6512 1.5333,-0.3733 3.1066,-0.9599 4.6532,-1.4933 53.052,-4.0399 113.9838,-78.2913 140.8498,-111.2238 47.1589,-57.7853 55.1187,-142.3565 61.7852,-213.9147 6.3731,-68.6649 19.3595,-166.0892 -6.1332,-232.0475 -16.9196,-43.8256 -45.5455,-76.9314 -76.1314,-112.1706 -23.5461,-27.1726 -56.9586,-49.3854 -82.7846,-75.0114 12.1863,3.6132 23.586,7.8131 33.0791,11.5064 84.0246,32.9058 151.9562,98.8908 204.0749,170.5024 z m -352.5912,-445.3622 c 7.5732,82.7312 36.3725,162.9159 96.5176,216.6212 -8.3064,-0.8133 -15.9729,-0.4266 -23.4261,0.4667 -28.9326,-23.2128 -57.3452,-46.4789 -80.5579,-76.7981 -2.8933,-3.7866 -4.4666,3.3732 -2.9066,5.7465 17.9595,27.3593 40.2123,52.8654 65.105,75.1448 -28.6259,9.4931 -51.0121,31.8392 -70.5449,61.4651 -16.7862,19.6129 -29.8793,41.0123 -40.199,63.7718 -21.0128,-8.9465 -41.3456,-18.6396 -61.8251,-33.6792 -29.1993,-21.4261 -80.958,-68.2516 -88.9578,-106.3573 -1.1866,-5.7332 -6.2665,-2.8 -5.9865,1.8933 2.5199,44.6655 46.1322,87.4111 75.9314,117.1837 12.0531,11.9864 40.6523,36.9057 68.8383,51.4254 -12.893,38.1724 -19.6395,79.358 -23.8794,122.1569 -5.5999,56.7853 -7.1332,113.5839 -3.4266,169.9691 -3.6799,0.5733 -7.3331,1.4133 -11.0397,1.8533 -11.973,1.5066 -23.7727,3.3199 -35.8391,4.2932 -11.9464,0.96 -23.6261,2.8666 -35.1058,6.3332 -10.1464,3.1199 -19.7728,8.4531 -30.2526,10.0931 -4.4265,0.7333 -3.5199,10.5864 0.9467,10.413 8.7331,-0.3199 16.6129,-3.4932 25.1593,-4.9065 13.7597,-2.2799 26.8127,-3.7332 40.8657,-4.1332 13.2663,-0.3733 26.426,-1.12 39.7057,-1.8133 2.7066,-0.1467 5.0265,-0.2267 7.1998,-0.4533 0.5466,5.8932 1.4666,11.7197 2.1333,17.5995 -3.6533,0.92 -7.3999,1.5867 -11.0664,2.1333 -10.2398,1.52 -20.5462,2.2133 -30.4526,5.5999 -3.0266,1.0533 -1.88,9.5731 1.56,8.8264 10.6797,-2.2266 21.6661,-1.4266 32.5058,-1.6133 2.9466,-0.027 6.0665,-0.1866 9.2131,-0.52 3.0266,23.3994 6.7065,46.7589 11.9197,69.9316 -27.8126,18.3196 -50.972,55.3853 -65.825,77.6514 -39.079,58.5719 -56.8786,114.2105 -67.8383,182.5554 -0.4667,2.9333 3.2932,6.6132 4.3866,2.44 18.1328,-69.7316 42.3989,-124.9569 87.0644,-182.2221 14.5063,-18.6396 31.2926,-35.1191 49.9321,-49.4255 0.44,1.5333 0.7467,3.0933 1.1733,4.6799 19.5329,71.8382 53.1054,142.3698 109.7173,192.7552 9.3998,8.3598 19.3862,16.5329 29.7726,23.6394 15.6796,10.6797 31.3725,16.5996 46.8788,19.0529 -2.8399,10.7997 -15.3463,40.2656 -15.3463,40.2656 0,0 28.466,-31.9458 29.5859,-38.999 15.0397,0.2533 122.5303,-60.9318 146.1297,-93.0377 44.6789,-60.7851 125.5436,-234.3941 123.8103,-235.0741 32.1458,-101.4775 36.1724,-208.1815 -18.4929,-301.2858 -29.2126,-49.7187 -215.7413,-195.5418 -231.1676,-202.7016 -3.7199,-1.7066 -7.2664,-3.1466 -10.8664,-4.5599 -42.7589,-57.0386 -87.3444,-105.584 -109.9305,-175.7156 -4.5066,-13.973 -28.7193,-38.7857 -31.1193,-52.6653 M 2779.1613,274.95733 c -0.7333,-3.18659 -1.0266,-6.9865 -1.1733,-9.21311 -0.2133,-2.97326 -1.8399,-5.2132 -4.8265,-5.66652 -0.8533,-0.12 -1.6133,0.0133 -2.36,0.14666 -14.5996,-45.4922 -216.4479,-131.57004 -235.3541,-137.3699 -30.2525,-9.26643 -213.488,-54.278641 -240.634,-17.35956 -9.4664,-21.599464 -5.2932,-41.812292 36.7591,-50.69207 62.8118,-13.253002 124.2503,-5.693191 185.3687,11.946368 97.6376,28.199295 189.4086,91.944372 263.6734,159.769342 29.0926,26.59933 20.5995,40.85231 -1.4533,48.43879 z m 55.492,-42.77227 C 2819.3737,190.06611 2756.8952,153.56036 2727.936,131.16092 2641.5648,64.509254 2537.9674,17.390432 2428.8368,8.3106588 c -42.999,-3.559911 -123.237,0.199995 -160.6894,35.7857722 -34.1991,13.06634 -67.5183,43.825571 -97.9975,61.225139 -49.6121,28.27929 -108.8506,40.35899 -162.8226,57.95855 -2.0399,0.65331 -6.0665,7.07982 -2.4533,8.13313 77.3181,22.39944 167.3958,-31.54588 234.7275,-83.771241 -3.0399,16.986241 3.9599,33.839151 15.7863,49.678761 -32.2926,24.02606 -59.7985,57.94521 -94.091,77.23807 -2.5333,1.41329 -4.6666,10.13308 -0.12,8.34645 39.559,-15.61294 73.1982,-44.51888 108.2106,-69.42493 25.3461,25.67936 60.3318,47.31882 79.8114,60.10517 20.3594,13.38633 42.2389,25.2927 65.105,36.05243 -1.8933,3.73324 -3.6799,7.51981 -5.7065,11.13305 -0.9467,1.6533 -2.0133,3.45325 -3.3599,4.83988 -0.2534,0.22666 -3.4133,4.09323 -1.5867,2.21328 -1.2533,1.30663 -2.3599,3.62658 -1.1733,5.27987 3.4266,4.94654 12.5997,-7.21315 20.2928,-19.62618 3.8533,1.73329 7.7865,3.37325 11.6531,5.07988 -4.5866,7.46648 -9.3864,14.87962 -15.493,21.3328 -3.8665,4.10656 -2.7066,15.41294 3.36,9.14643 7.7464,-7.97313 14.6796,-17.0929 21.0261,-26.666 9.6264,4.06657 19.3595,7.9598 29.2526,11.53305 -12.413,16.09293 -23.7194,33.18584 -34.8791,49.23877 -10.7864,15.49294 -19.0529,32.42585 -27.6393,49.14544 -7.7598,15.10628 -12.773,39.57234 -24.0128,52.59868 -1.0799,1.19997 -2.0399,6.73317 1.2,5.50653 6.3332,-2.42661 6.3865,-4.39989 9.5864,-11.13306 10.8664,-22.65276 23.5861,-44.55888 35.8258,-66.585 15.053,-27.05265 36.5858,-49.63876 56.3186,-73.18483 20.7461,6.87982 41.8123,13.053 63.0518,18.21287 -1.3733,3.43992 -2.6266,6.83983 -3.8533,10.05309 -13.093,34.85246 -20.7195,72.01153 -28.7326,108.30395 -1.4666,6.58651 5.2399,5.4932 6.6932,0.36 8.8397,-31.49255 17.8929,-62.79843 29.6926,-93.30434 2.9999,-7.8398 6.4131,-15.07962 10.013,-22.14611 24.3461,5.47986 48.7588,9.74642 72.8916,13.01301 -4.6533,26.35934 -2.32,55.54527 -5.3732,80.43799 -0.9334,7.61314 7.1731,2.29327 8.0931,-2.37328 3.3332,-17.65289 5.0399,-35.54578 7.1465,-53.39866 0.9466,-7.77314 2.5732,-15.31962 4.3332,-22.8661 70.2649,-258.513535 27.466,3.07992 40.9056,3.94657 18.9996,1.26663 43.3323,1.55996 66.6517,-1.83995 -17.2929,45.11887 -9.0398,106.05068 1.8666,151.32955 1.6667,6.87982 9.8398,-3.29326 9.5065,-7.27982 -2.3733,-27.93264 -1.32,-55.55861 1.5732,-83.37125 2.0933,-20.42616 8.3998,-43.79891 5.3332,-64.35839 11.5864,-2.97326 22.4662,-7.06649 31.6259,-13.01301 3.6666,63.15842 31.5459,131.42338 55.852,183.07542 3.3599,7.17316 11.133,-4.11989 9.5997,-9.06644 -24.826,-78.97136 -26.186,-156.72941 -38.6257,-237.22073 -0.4666,-2.8266 -1.3866,-4.57322 -2.5599,-5.79986 m 410.4964,930.87004 c -69.2783,-26.066 -136.5433,-54.9186 -206.1815,-77.918 3.5466,-13.9863 -5.2666,-28.586 -18.4796,-41.8923 4.3866,-1.2933 8.4265,-2.4133 12.0264,-3.2266 53.0253,-12.0397 107.5706,-18.1329 159.396,-35.0525 3.3866,-1.1466 7.1198,-9.47972 1.4267,-8.05309 -45.2656,11.42639 -92.6511,14.86629 -138.7566,21.85279 -17.2929,2.6266 -34.4925,5.9732 -51.732,9.1331 -15.973,-12.333 -32.9459,-22.4261 -42.559,-28.22596 6.6532,-4.81321 12.7864,-10.25308 16.9996,-13.07967 17.9996,-11.9597 37.6257,-21.87946 53.0654,-37.23907 3.5332,-3.47991 0.4933,-7.14649 -3.36,-3.85324 -23.426,20.0795 -54.1453,29.87925 -79.798,47.03883 -4.6265,-2.21328 -9.5064,-3.89324 -14.2796,-5.6532 0.9333,-1.2533 1.8666,-2.53327 2.8266,-3.73324 6.5198,-7.9198 13.453,-15.61294 19.6262,-23.7994 4.1999,-5.54653 -2.8,-7.17316 -6.2132,-2.9066 -7.6798,9.5331 -16.3596,18.30621 -24.3061,27.61265 -6.1598,-1.86662 -12.413,-3.51991 -18.8395,-4.81322 -15.6396,-7.09315 -33.3592,-12.66635 -51.8654,-16.90624 0.7867,-18.94619 -2.7199,-39.38568 -3.5465,-55.7986 -1.9467,-37.99905 3.4665,-77.98472 -6.7199,-115.05046 -1.0266,-3.74657 -7.3998,1.1333 -6.8398,4.21323 5.6932,33.89248 -1,69.86492 -3.5866,103.8374 -1.4533,19.29285 -0.8533,38.93236 -1.6266,58.42521 -12.733,-2.10662 -25.5994,-3.55991 -38.2791,-4.43989 -2.8265,-14.93296 -13.1063,-29.11927 -18.5062,-42.97226 -1.8266,-4.62655 -9.9464,1.3733 -8.7731,5.3332 2.3333,7.70647 5.1866,15.18629 8.1332,22.65277 1.7732,4.58655 3.1865,9.38643 4.6532,14.11964 -27.1193,-0.98664 -52.6654,0.66665 -72.7449,4.79988 -4.9198,-3.67991 -9.7997,-7.35981 -14.8129,-10.91972 -19.0529,-13.39967 -49.7055,-25.42604 -60.0785,-47.69215 -2.0666,-4.50655 -9.9465,1.3733 -8.7065,5.3332 6.6932,21.23947 31.9459,39.33235 48.5455,52.95868 2.9866,2.41327 5.9865,5.30653 8.9997,8.34646 -7.6264,3.30658 -13.5996,6.81316 -18.1462,10.4664 -11.5863,-3.35991 -24.1594,-4.74654 -35.6391,-6.99982 -25.426,-5.02654 -50.732,-7.05316 -75.8114,-14.10632 -2.5066,-0.70664 -7.1732,4.09324 -4.2266,5.18654 19.0129,6.77317 38.2924,11.46638 57.9986,15.46628 15.6396,3.21325 31.6392,9.61309 47.7054,12.73302 -7.7331,18.03957 10.1065,38.13237 33.3059,55.09197 -2.8799,1.0933 -5.7865,2.1199 -8.6398,3.3599 -10.7464,4.6665 -23.6927,8.1865 -31.6792,17.2796 -3.0799,3.5065 0.08,6.2531 3.7732,4.3199 15.373,-8.0132 32.4926,-11.9331 49.3721,-16.213 3.3999,2.1733 6.8532,4.2933 10.2531,6.2932 -20.7595,8.3865 -41.2923,17.5729 -61.8651,25.186 -42.9856,15.9196 -91.4377,42.919 -136.2099,51.8787 -3.32,0.6667 -7.8265,7.9198 -2.2267,7.2665 34.5992,-4.0265 69.6116,-21.6661 102.9041,-32.1725 39.639,-12.493 79.4914,-25.4394 118.2371,-40.879 4.8665,2.4533 9.4264,4.5999 13.493,6.3599 25.386,11.1997 51.852,19.5461 78.8647,25.5727 -3.0266,8.9597 -5.4399,18.1595 -7.8532,27.5193 -6.7998,26.306 -13.9863,52.3053 -17.7862,79.2647 -0.9066,6.4265 10.1464,1.1066 11.0931,-3.0533 7.5864,-34.5591 21.7861,-66.8517 33.4125,-99.8908 25.1193,4.4532 50.612,6.8131 76.1181,7.2931 3.8532,6.6265 8.9597,12.7997 12.813,19.1595 1.9066,3.16 8.8798,-2.4532 7.5731,-5.5465 -1.9466,-4.6532 -3.9599,-9.0931 -5.9598,-13.5997 1.9999,-0.04 4.0132,0.053 6.0132,0.013 2.6666,-0.08 5.8665,-0.027 9.2797,0.04 3.3066,3.1066 6.7065,6.0665 9.5865,8.8931 10.453,10.2131 21.2261,20.0928 32.1991,29.7592 4.0133,3.56 13.1864,-4.1732 9.6265,-8.3597 -8.3865,-9.7998 -16.4796,-19.8129 -24.3861,-29.986 14.373,-0.2133 29.6259,-1.4533 41.8923,-5.7465 26.5727,6.0132 53.372,11.2531 79.2247,18.5596 48.7188,13.8396 96.2109,32.4525 145.2364,44.9722 3.2532,0.8266 9.4264,-6.2932 5.3465,-7.8132 m -1919.752,1265.2884 c -31.1992,-67.1317 -65.0251,-132.0234 -93.1844,-199.755 -13.6796,4.5999 -28.9059,-3.0933 -43.1589,-15.2663 -0.9599,4.4666 -1.7733,8.5731 -2.3199,12.2264 -8.0131,53.7853 -9.9998,108.6372 -22.9728,161.5826 -0.8933,3.4666 -8.9198,7.8131 -7.9198,2.0266 7.9865,-45.9988 7.8665,-93.5043 11.3597,-140.0098 1.32,-17.4396 3.3733,-34.8392 5.2266,-52.2654 -13.493,-14.9996 -24.8394,-31.1725 -31.3459,-40.319 -4.2932,6.9865 -9.2664,13.5197 -11.7597,17.9196 -10.5731,18.8528 -18.9995,39.1723 -33.1459,55.7319 -3.2132,3.7732 -7.0931,1.0267 -4.0932,-3.0666 18.2529,-24.8794 25.7194,-56.2386 40.8923,-83.1046 -2.5466,-4.4532 -4.5865,-9.1864 -6.7065,-13.8263 -1.1733,1.0267 -2.3732,2.0666 -3.4932,3.1199 -7.4132,7.0799 -14.5597,14.573 -22.2661,21.3462 -5.2132,4.5998 -7.3598,-2.2533 -3.3733,-5.9732 8.9331,-8.3731 17.0396,-17.6929 25.706,-26.3194 -2.3066,-5.9998 -4.4265,-12.1063 -6.1998,-18.4128 -8.2531,-15.0797 -15.1463,-32.3192 -20.7595,-50.4654 -18.8262,2.2266 -39.479,0.2533 -55.9052,0.6533 -38.0391,0.92 -77.50478,9.3197 -115.22383,1.9466 -3.81324,-0.7333 0.55998,-7.4532 3.67991,-7.1465 34.22581,3.1466 69.59826,-6.2265 103.27742,-11.3597 19.1328,-2.9066 38.759,-3.7732 58.1319,-6.0132 -3.0533,-12.533 -5.4666,-25.2527 -7.3065,-37.839 -15.093,-1.6933 -30.0126,-10.8798 -44.2389,-15.2263 -4.7466,-1.4667 0.6266,-10.0131 4.6665,-9.1465 7.8665,1.7467 15.533,4.0266 23.1995,6.4132 4.7065,1.4133 9.5997,2.4666 14.4263,3.5732 -3.0133,-26.9593 -3.2933,-52.5586 -0.68,-72.8915 -4.0266,-4.6265 -8.0665,-9.2264 -11.9997,-13.9596 -14.7863,-17.9862 -29.0793,-47.6522 -52.0787,-56.3319 -4.6399,-1.72 0.64,-10.0131 4.6799,-9.0798 21.6794,5.0932 41.6256,28.9059 56.4519,44.4389 2.6266,2.7866 5.7465,5.5732 8.9998,8.3464 2.7332,-7.8531 5.7732,-14.0796 9.0664,-18.8795 -4.2132,-11.3064 -6.5465,-23.7327 -9.6531,-35.0125 -6.9198,-24.9727 -10.8397,-50.0654 -19.7595,-74.5448 -0.8933,-2.4532 3.5466,-7.4664 4.8532,-4.5998 8.1865,18.4395 14.3197,37.319 19.7862,56.6652 4.3732,15.3596 11.9597,30.8392 16.2796,46.6122 17.3996,-9.0665 38.7724,7.2265 57.4252,29.0793 0.88,-2.9466 1.68,-5.9332 2.7066,-8.8665 3.8533,-11.0664 6.3865,-24.2394 14.853,-32.8925 3.2666,-3.3199 6.2398,-0.3867 4.5999,3.4399 -6.8532,15.9329 -9.4665,33.3058 -12.4664,50.4521 2.4266,3.2266 4.7999,6.5198 7.0398,9.7597 6.7999,-21.3328 14.4263,-42.4922 20.4662,-63.585 12.653,-44.0656 35.9324,-94.3977 41.519,-139.7165 0.4133,-3.3733 7.3064,-8.3998 7.0664,-2.7733 -1.4133,34.8125 -16.3729,71.0382 -24.346,105.024 -9.4798,40.4657 -19.3995,81.1847 -31.8926,120.9837 2.8133,4.6532 5.3066,9.0531 7.3599,12.973 13.0663,24.466 23.386,50.2387 31.4125,76.7181 8.7198,-3.6799 17.7196,-6.7865 26.866,-9.9065 25.7194,-8.7464 51.1054,-17.8528 77.7047,-23.6794 6.3465,-1.3866 1.8667,10.0398 -2.2132,11.2931 -33.8925,10.1597 -65.0251,26.746 -97.1043,40.8123 6.3332,24.7194 10.5997,49.9588 12.9864,75.3581 6.9065,3.3466 13.4396,7.9732 20.0795,11.3464 3.2932,1.6533 -1.7867,9.0398 -4.9599,7.9731 -4.7866,-1.5999 -9.3731,-3.2666 -14.013,-4.9332 0.1067,2 0.36,3.9999 0.4533,5.9999 0.1333,2.6666 0.4133,5.8532 0.7467,9.2531 3.3465,3.0532 6.5465,6.2265 9.5864,8.8798 10.9597,9.6664 21.6261,19.6661 32.0925,29.8792 3.8533,3.7332 -3.1732,13.4663 -7.6131,10.2264 -10.3998,-7.6265 -20.9995,-14.9463 -31.7326,-22.0661 0.8667,14.3596 0.7867,29.6526 -2.5866,42.1989 7.9998,26.0527 15.2397,52.3854 24.4661,77.6114 17.4529,47.5455 39.5857,93.5044 55.7586,141.4498 1.0666,3.1866 -5.5732,9.8798 -7.3998,5.9199 m 1111.2655,498.3342 c -46.7721,17.7596 -92.7176,38.279 -137.6632,60.2385 -45.7188,22.3194 -96.5309,46.4522 -140.2098,77.5847 -35.4925,15.2396 -70.7849,41.479 -87.2112,71.2916 -27.4126,49.6254 54.9053,45.8922 82.998,42.8789 90.1977,-9.5998 180.7688,-48.8121 259.8201,-90.9044 59.5185,-31.6659 149.8363,-84.9845 184.1821,-144.8364 56.0253,-97.6375 -133.09,-27.226 -161.916,-16.2529 M 167.07998,1444.0481 c -23.13409,84.4646 -57.47723,161.4893 -63.89707,250.2204 -5.687861,78.6914 20.78081,169.5158 50.04408,242.1273 -20.48882,27.7326 -46.7615,39.6257 -74.084815,-3.2399 -19.268852,-30.2126 -26.716665,-67.9583 -32.379191,-103.9308 0.991976,-0.2266 2.043949,-0.8799 2.895928,-2.0666 0.04667,-0.067 0.162663,-0.12 0.211995,-0.1866 9.554428,-0.8934 20.552819,-4.8533 25.799355,-6.9999 3.677241,-1.4933 6.849162,-4.7598 7.421148,-8.8131 0.346658,-2.5066 -0.785314,-3.9999 -2.56127,-4.5199 0.04667,-0.093 0.09733,-0.16 0.113331,-0.2533 -11.785039,-1.4666 -25.559361,3.5466 -36.904411,-2.0133 -0.291993,-0.1333 -0.598652,-0.1466 -0.879978,-0.2266 -1.986617,-12.5597 -3.709241,-25.7727 -5.305201,-39.1857 8.66645,-3.1599 17.026241,-7.9598 24.227395,-12.5864 4.663883,-2.9999 6.80383,-13.7196 -1.155971,-9.6664 -7.366483,3.7466 -15.915603,7.6665 -24.444723,8.9198 -4.406556,-42.2656 -6.587835,-87.4378 -4.429222,-132.3567 0.661317,2.3866 4.949209,-0.8933 5.17987,-2.7733 6.631834,-55.4119 17.318234,-107.2106 31.428548,-161.3826 20.090164,-77.1714 68.976942,-51.932 101.038812,-14.573 -1.10398,1.1067 -2.01462,2.3066 -2.31861,3.5066 z m 370.99072,30.7592 c -55.27862,24.0794 -124.27689,51.1587 -184.16873,58.1986 -42.05761,4.9465 -81.75929,6.6665 -123.20358,14.3063 -8.89711,-44.9456 -24.14873,-87.0645 -47.49348,-122.6236 15.21295,-6.9198 30.63656,-10.6398 46.76949,-15.0796 19.35685,-5.3332 38.26571,-15.2663 56.90925,-22.7195 3.74257,-1.5066 7.68647,-11.0797 1.27997,-8.9997 -20.87148,6.7464 -41.63096,14.6263 -62.82643,20.2261 -17.01158,4.4399 -34.17382,6.8665 -48.0468,18.2662 -1.31197,-1.8666 -2.68127,-3.7199 -3.99724,-5.6398 4.85988,-1.4933 9.81443,-2.7466 14.6663,-4.7199 7.73581,-3.1066 14.93163,-6.9732 21.40614,-12.2264 4.29589,-3.4266 2.5706,-10.2531 -3.02126,-6.1732 -8.56245,6.2532 -19.49685,10.2398 -29.92592,11.7464 -3.61458,0.52 -6.8745,1.3733 -9.87442,2.7599 -4.20256,-4.7865 -8.71978,-9.2397 -13.58633,-12.9996 4.1719,-0.6533 8.34646,-1.4667 12.41836,-2.7733 19.51018,-6.3332 36.20976,-22.8661 52.86401,-34.0925 25.58069,-17.2795 52.83601,-43.1189 60.48116,-73.9181 0.97864,-3.9599 -4.51589,-1.6533 -5.49853,0.2933 -17.20891,33.4125 -83.15259,72.3315 -119.84901,74.7181 -22.5701,1.4933 -39.35101,7.4398 -51.53738,22.8128 -10.085077,2.9733 -19.520841,9.8797 -27.287314,21.7994 -20.247493,31.1726 -31.385882,64.5184 -37.327066,98.9842 -49.366766,128.3702 -47.689475,303.0991 -6.41984,420.1762 10.402407,29.4393 35.88577,92.2244 77.23674,87.1712 17.59556,8.4931 44.74421,12.4396 52.34535,14.2663 25.07538,6.0931 49.82276,14.3996 74.07682,23.0661 35.74844,12.813 51.64537,37.9323 78.97269,60.9318 3.01326,2.5466 8.0398,-3.6933 6.6225,-6.6532 -9.91708,-20.7861 -21.13414,-40.1723 -35.98843,-57.7852 -12.53435,-14.853 -44.65889,-21.0928 -61.93179,-26.626 -25.0327,-7.9998 -50.08541,-13.133 -75.94876,-17.8262 -1.43464,-0.2667 -4.71322,-0.5334 -8.82645,-0.9067 24.67538,-16.4396 41.3803,-46.8122 53.57733,-77.3581 9.83975,1.64 19.72884,2.96 29.24727,4.6533 21.88078,3.7865 39.47768,13.8396 60.07849,20.9728 3.89991,1.3733 9.69309,-6.7999 5.14654,-8.8398 -20.04216,-8.8398 -35.73111,-19.7062 -57.3599,-25.6127 -10.19308,-2.7599 -20.48349,-5.5465 -30.78589,-8.0131 4.91054,-13.8264 9.01444,-27.1594 12.61435,-38.6257 1.35063,-4.2933 2.58527,-8.7465 3.88923,-13.1464 12.39836,0.9067 24.84071,1.6933 37.29107,2.36 37.44173,2.1732 77.07141,7.9998 114.20248,6.6931 4.78655,-0.2 10.94639,-10.5464 4.0399,-11.013 -19.57285,-1.2933 -38.92703,-8.9331 -58.31321,-12.0397 -17.19557,-2.8 -34.78713,-3.4133 -52.06403,-5.1599 -11.43838,-1.16 -24.99138,-4.3199 -38.38571,-6.0265 9.67976,-39.7857 16.50892,-83.8379 19.01552,-128.8368 2.01329,-2.1199 5.32787,-7.2531 1.37064,-7.7731 -0.37199,-0.067 -0.68799,-0.3467 -1.00931,-0.48 1.04531,-23.3861 0.70931,-46.8788 -0.83465,-70.1716 10.15975,-1.2933 20.34083,-2.6533 30.56324,-3.1332 19.71951,-0.9067 39.53101,1.5732 59.10785,-0.8934 3.77058,-0.5066 8.99045,-9.2797 3.33059,-9.0397 -19.08352,0.7333 -38.16971,-3.5599 -57.2479,-4.1999 -11.9917,-0.4267 -24.51006,0.6666 -36.78442,2.5866 -0.79198,-8.6665 -1.72929,-17.3063 -2.95859,-25.8394 7.05849,0.027 14.93163,-1.3733 25.36337,-2.2533 33.40849,-2.6932 68.10496,-2.8799 101.15347,-8.5597 57.81188,-9.9331 126.63683,-50.9988 176.30226,-80.4114 2.71993,-1.6266 5.43986,-10.1197 0.15999,-7.7998 m 274.36648,1498.6426 c 59.09185,64.6383 105.90401,134.7966 177.51556,187.5686 63.51836,46.8122 154.44946,72.9048 231.46086,86.8912 12.533,32.1325 8.5598,60.7051 -42.2656,60.9318 -35.8391,0.1733 -71.7315,-13.6797 -105.1707,-28.0793 0.3333,-0.96 0.3467,-2.2 -0.2,-3.5599 -0.04,-0.067 -0.013,-0.1867 -0.053,-0.2667 4.3465,-8.5598 6.8665,-19.9728 7.8531,-25.5594 0.6933,-3.9065 -0.3733,-8.3331 -3.4932,-10.9863 -1.9333,-1.6267 -3.7999,-1.4667 -5.1866,-0.24 -0.053,-0.093 -0.093,-0.1734 -0.16,-0.24 -7.5331,9.1997 -10.6397,23.5194 -21.3861,30.1459 -0.28,0.1733 -0.4533,0.4266 -0.6666,0.6266 -11.6931,-5.0265 -23.7861,-10.6264 -35.9725,-16.4396 1.9466,-8.9997 2.3466,-18.6395 2.28,-27.1993 -0.053,-5.5465 -7.9598,-13.0663 -8.7865,-4.1732 -0.7733,8.2265 -2.0133,17.5462 -5.5065,25.426 -38.0924,-18.8262 -77.45141,-41.0923 -114.29049,-66.8916 2.35994,0.7199 1.87995,-4.6533 0.41332,-5.8532 -43.31891,-35.1858 -81.42463,-71.8649 -119.70367,-112.7039 -54.5453,-58.1719 -7.11982,-86.0512 41.59896,-93.2243 0.34666,1.52 0.86664,2.9333 1.71996,3.8266 z M 1036.4316,2676.124 c -9.1331,59.5985 -23.0528,132.41 -49.06546,186.7953 -18.25288,38.2257 -37.98572,72.7048 -53.63866,111.8372 -42.77227,-16.4663 -86.51784,-26.0394 -129.05011,-25.266 2.25328,-16.573 7.34648,-31.5992 12.19969,-47.5988 5.81319,-19.2262 7.50648,-40.519 11.15973,-60.2652 0.73331,-3.9599 -5.26654,-12.413 -6.93316,-5.8799 -5.42654,21.2528 -9.83976,43.0123 -16.42626,63.9184 -5.31987,16.7596 -12.41302,32.5726 -10.18641,50.3854 -2.27995,0.12 -4.57322,0.28 -6.9065,0.3734 1.3333,-4.9066 2.91993,-9.7731 3.83991,-14.9197 1.49329,-8.1998 2.06661,-16.3595 1.0933,-24.626 -0.61331,-5.4665 -7.30648,-7.6531 -6.83983,-0.7467 0.71999,10.5864 -1.74662,21.9595 -6.03984,31.5859 -1.4933,3.3333 -2.50661,6.5465 -2.93326,9.8131 -6.29318,1.0133 -12.47969,2.4399 -18.23955,4.5599 1.66663,-3.8799 3.21325,-7.8398 4.27989,-11.9864 5.05321,-19.8795 -0.0133,-42.8256 -0.62665,-62.9051 -0.95997,-30.8525 -8.26646,-67.6916 -30.22591,-90.5844 -2.82659,-2.9466 -3.81324,2.9333 -2.69326,4.7999 19.06619,32.3859 16.78624,108.9173 -0.77332,141.2231 -10.78639,19.8929 -14.7063,37.2525 -8.21313,55.7587 -2.86659,10.1197 -2.06661,21.7861 3.87991,34.7191 15.55961,33.7591 37.81239,60.9718 63.78507,84.3979 82.21128,110.2506 230.87421,202.0749 351.92451,229.6609 30.4393,6.9065 97.1443,18.8662 114.9305,-18.7995 16.5729,-10.3598 34.3991,-31.1992 39.999,-36.6524 18.5329,-17.9596 38.7723,-34.4525 59.0518,-50.3455 29.906,-23.3994 59.6252,-23.4394 93.6644,-34.2658 3.7599,-1.1866 1.1733,-8.7731 -2.0933,-9.1597 -22.8794,-2.7066 -45.2522,-3.5599 -68.0783,-0.4 -19.2529,2.6799 -41.6656,26.5193 -55.572,38.1724 -20.1195,16.8929 -37.8257,35.3457 -55.5986,54.7186 -0.9866,1.0666 -2.9599,3.6932 -5.4798,6.9731 -0.7333,-29.6392 -17.5063,-59.9718 -36.8258,-86.5845 6.6399,-7.4531 13.0397,-15.1062 19.5462,-22.2527 14.8663,-16.493 32.7725,-25.9994 49.7988,-39.6257 3.2399,-2.5599 -0.5734,-11.813 -4.7333,-9.0664 -18.1728,12.2396 -35.7324,19.7061 -52.2653,34.8391 -7.7865,7.1465 -15.6263,14.373 -23.2128,21.7594 -9.0664,-11.5197 -18.1462,-22.1061 -25.9327,-31.2792 -2.9065,-3.4266 -6.0131,-6.8531 -9.0397,-10.3064 7.3865,-9.9997 14.6929,-20.0928 21.9061,-30.2659 21.7994,-30.5192 47.8921,-60.9185 66.5983,-93.011 2.3866,-4.1599 -3.0799,-14.893 -7.1598,-9.2931 -11.5464,15.8663 -28.3326,28.146 -41.3056,42.8789 -11.5331,13.053 -21.4395,27.5993 -32.1459,41.279 -7.0798,9.0531 -16.9862,18.8262 -25.5727,29.2526 -28.4926,-29.4259 -62.0918,-58.7052 -98.8109,-84.8379 -0.7199,-2.8399 -3.2932,-8.3731 -5.8531,-5.3065 -0.2534,0.28 -0.6534,0.3866 -0.9467,0.5866 -19.2128,-13.3596 -39.2657,-25.6127 -59.78515,-36.7324 4.33322,-9.2798 8.61315,-18.6129 13.66635,-27.5193 9.7464,-17.1729 22.4261,-32.5859 30.7859,-50.4654 1.5866,-3.4666 -3.0533,-12.5597 -5.8666,-7.6398 -9.5597,16.5329 -23.386,30.3726 -34.10576,46.1722 -6.75984,9.9064 -12.50636,21.0794 -17.43957,32.4792 -7.74647,-3.9466 -15.55961,-7.7599 -23.42608,-11.2798 3.78657,-5.9598 6.79983,-13.3596 11.62638,-22.6527 15.54627,-29.6926 33.90583,-59.1319 46.74553,-90.1178 22.4527,-54.1853 24.4394,-134.3166 26.0793,-192.0085 0.08,-3.1733 -5.6532,-9.9998 -6.5198,-4.2932"
     style="fill:#000000;fill-opacity:1;fill-rule:nonzero;stroke:none;stroke-width:0.13333"
     id="path9" />
  <path
     d="m 1099.55,3012.8622 c -1.9066,4.2666 -3.3466,8.6798 -5.3599,12.893 -2.5599,5.1466 -5.7332,6.1465 -9.6931,9.4398 -2.6532,2.2399 -0.7866,7.3065 1.3067,9.1731 11.7463,10.3064 18.2662,-17.1596 20.8261,-24.0127 1.3467,-3.6266 -4.6932,-12.7864 -7.0798,-7.4932 m 656.6102,513.2672 c 84.2246,23.9994 160.8894,59.1318 249.5405,66.465 78.638,6.4932 169.7291,-19.0262 242.6339,-47.5455 27.5193,20.7728 39.1457,47.1588 -3.9999,74.0515 -30.4126,18.9462 -68.2383,26.0127 -104.2507,31.3059 -0.2267,-1 -0.8667,-2.0533 -2.04,-2.92 -0.067,-0.053 -0.12,-0.16 -0.1866,-0.2133 -0.8,-9.5597 -4.6399,-20.5995 -6.7332,-25.8793 -1.4666,-3.6799 -4.6932,-6.8932 -8.7331,-7.5065 -2.5066,-0.3733 -4.0132,0.7466 -4.5466,2.5199 -0.093,-0.053 -0.1733,-0.1066 -0.2666,-0.12 -1.5733,11.7731 3.2932,25.5994 -2.3733,36.8791 -0.1467,0.2933 -0.16,0.6 -0.24,0.88 -12.5863,1.8533 -25.8127,3.4399 -39.2523,4.9065 -3.0533,-8.7064 -7.7732,-17.1062 -12.3331,-24.3594 -2.9466,-4.6932 -13.6396,-6.9465 -9.6797,1.0533 3.6799,7.3999 7.5065,15.9996 8.6798,24.5328 -42.3056,3.9732 -87.5045,5.6932 -132.3967,3.0665 2.3866,-0.6266 -0.8533,-4.9598 -2.72,-5.1998 -55.3452,-7.1998 -107.0373,-18.4262 -161.0493,-33.0925 -76.958,-20.8795 -51.2254,-69.505 -13.533,-101.1842 1.0933,1.12 2.28,2.04 3.4799,2.36 z m 34.5725,-370.6574 c 23.5061,55.5319 49.8788,124.7969 56.3053,184.7554 4.5065,42.1056 5.8132,81.8246 13.0397,123.3435 -45.0389,8.4398 -87.3045,23.2528 -123.117,46.2256 -6.7598,-15.2797 -10.3197,-30.7459 -14.5863,-46.9189 -5.1465,-19.4128 -14.8796,-38.4123 -22.1328,-57.1452 -1.4666,-3.7466 -11.013,-7.7865 -8.9864,-1.36 6.5332,20.9328 14.1996,41.7723 19.5728,63.0251 4.2666,17.0529 6.5199,34.2392 17.7729,48.2388 -1.8799,1.2933 -3.7465,2.6399 -5.6798,3.9332 -1.44,-4.8798 -2.6533,-9.8397 -4.5732,-14.7196 -3.0266,-7.7598 -6.8132,-14.9996 -11.9997,-21.5195 -3.3866,-4.3332 -10.2265,-2.6799 -6.1999,2.9466 6.1599,8.6265 10.0264,19.6129 11.4397,30.0526 0.4667,3.6133 1.2933,6.8799 2.6533,9.8931 -4.8265,4.1599 -9.3331,8.6265 -13.133,13.453 -0.6133,-4.1732 -1.3866,-8.3598 -2.6533,-12.4397 -6.1332,-19.5728 -22.4927,-36.4391 -33.5591,-53.212 -16.9996,-25.7593 -42.559,-53.2787 -73.2782,-61.2385 -3.9466,-1.0266 -1.6933,4.4933 0.2267,5.4932 33.2391,17.5596 71.4782,83.9046 73.4781,120.6237 1.2667,22.5861 7.0398,39.4257 22.2928,51.7587 2.8666,10.1197 9.6664,19.6262 21.5061,27.5193 30.9726,20.5595 64.1984,32.0392 98.6109,38.3457 127.8368,50.6788 302.5791,50.7987 420.0828,10.7464 29.5326,-10.1064 92.5844,-34.9458 87.9578,-76.3447 8.6665,-17.5063 12.9064,-44.6123 14.813,-52.1854 6.3332,-25.0127 14.9063,-49.6788 23.8261,-73.8382 13.173,-35.6124 38.4523,-51.252 61.7451,-78.3447 2.5599,-2.9866 -3.6133,-8.0798 -6.5999,-6.6931 -20.8928,9.7064 -40.3856,20.7194 -58.1452,35.3991 -14.9863,12.373 -21.5461,44.4389 -27.266,61.6518 -8.2664,24.946 -13.6396,49.9454 -18.5995,75.7581 -0.2933,1.4266 -0.5866,4.7065 -1.0133,8.8131 -16.1729,-24.8394 -46.3722,-41.8523 -76.7847,-54.372 1.7332,-9.8131 3.1599,-19.6928 4.9465,-29.1859 3.9999,-21.8528 14.253,-39.3324 21.5861,-59.8652 1.4133,-3.8932 -6.6931,-9.7597 -8.7731,-5.2399 -9.0531,19.9462 -20.0795,35.5325 -26.2127,57.0919 -2.8666,10.1731 -5.7465,20.4262 -8.3331,30.7059 -13.7596,-5.0532 -27.0526,-9.2931 -38.4924,-13.013 -4.2665,-1.3999 -8.7064,-2.6799 -13.1063,-4.0265 1.04,-12.3864 1.96,-24.8261 2.7599,-37.2658 2.5466,-37.4124 8.7865,-76.9847 7.8665,-114.1304 -0.16,-4.7866 -10.4397,-11.0531 -10.9864,-4.1466 -1.48,19.5595 -9.3331,38.839 -12.6263,58.1852 -2.9733,17.1729 -3.7733,34.7458 -5.7066,52.012 -1.2666,11.4264 -4.5732,24.9461 -6.4131,38.3191 -39.6924,-10.0931 -83.6646,-17.3729 -128.6368,-20.3462 -2.0933,-2.0266 -7.1998,-5.3998 -7.7598,-1.4399 -0.067,0.36 -0.36,0.6799 -0.4933,0.9999 -23.3728,-1.2933 -46.8655,-1.1999 -70.1716,0.1067 -1.1867,-10.1731 -2.44,-20.3595 -2.8133,-30.5859 -0.72,-19.7328 1.9733,-39.519 -0.2933,-59.1185 -0.4667,-3.7733 -9.1865,-9.0798 -8.9998,-3.4266 0.5333,19.0929 -3.9599,38.1324 -4.7865,57.1986 -0.56,11.9863 0.4133,24.5194 2.1999,36.8124 -8.6664,0.7066 -17.3196,1.5599 -25.866,2.6932 0.1067,-7.0531 -1.2133,-14.9462 -1.9866,-25.386 -2.36,-33.4258 -2.1866,-68.1316 -7.5198,-101.2375 -9.3331,-57.9052 -49.7055,-127.1568 -78.5981,-177.1155 -1.5866,-2.7466 -10.0531,-5.5466 -7.7998,-0.24"
     style="fill:#000000;fill-opacity:1;fill-rule:nonzero;stroke:none;stroke-width:0.13333"
     id="path10" />
  <path
     d="m 1992.2477,3628.9401 c 0.6133,4.6266 1.7066,9.1331 2.1999,13.773 0.5333,5.7332 -1.6533,8.2532 -3.2932,13.133 -1.08,3.2933 3.1732,6.6265 5.9198,7.1199 15.4263,2.6132 6.5599,-24.1994 5.1332,-31.3726 -0.7466,-3.7866 -10.7064,-8.4131 -9.9597,-2.6533"
     style="fill:#000000;fill-opacity:1;fill-rule:nonzero;stroke:none;stroke-width:0.13333"
     id="path11" />
  <path
     d="m 663.10758,2482.6621 c -12.81302,-5.5865 -25.23937,-16.4662 -32.43919,-29.2526 -10.83973,-10.1464 -15.41295,-24.026 -5.99985,-38.9723 -4.73322,2.9332 -9.02644,6.8265 -12.58636,12.013 -10.55973,15.4396 -5.90651,29.8393 5.25321,40.2923 7.19982,12.7864 19.62617,23.6661 32.43919,29.2393 18.17287,7.9331 38.5057,-0.64 48.65211,-16.5863 -10.34641,6.5332 -23.31941,8.5065 -35.31911,3.2666"
     style="fill:#4f292a;fill-opacity:1;fill-rule:nonzero;stroke:none;stroke-width:0.13333"
     id="path12" />
  <path
     d="m 704.82653,2459.4494 c 1.47997,-1.76 2.23995,-3.9066 0.14667,-4.8532 0,0 -0.0667,-0.053 -0.12,-0.093 -2.23995,-34.6658 -50.35874,-58.5585 -80.18466,-40.0656 -9.4131,14.9463 -4.83988,28.8259 5.99985,38.9723 7.19982,12.7864 19.62617,23.6661 32.43919,29.2526 11.9997,5.2399 24.9727,3.2666 35.31911,-3.2666 1.69329,-2.6666 3.14659,-5.5198 4.21323,-8.5464 1.35997,-3.8932 1.91995,-7.6931 2.18661,-11.3997"
     style="fill:#824b2f;fill-opacity:1;fill-rule:nonzero;stroke:none;stroke-width:0.13333"
     id="path13" />
  <path
     d="m 610.49556,2130.2443 c -2.61327,-4.3866 -3.21326,-8.9465 -2.55994,-13.2397 -1.89328,-6.2398 -2.13328,-12.653 -0.98664,-18.7195 -11.14639,9.4797 -14.55964,24.506 -10.30641,38.519 -0.65332,4.3066 -0.0533,8.8665 2.55994,13.253 17.75955,30.3593 77.75805,70.0116 110.7039,43.0656 7.38648,-6.0398 10.55973,-12.733 10.97305,-19.5728 -32.99917,26.4393 -92.67768,-13.0397 -110.3839,-43.3056"
     style="fill:#4f292a;fill-opacity:1;fill-rule:nonzero;stroke:none;stroke-width:0.13333"
     id="path14" />
  <path
     d="m 699.52,2132.6575 c -21.69279,-22.8394 -42.41227,-52.0253 -77.86472,-42.0789 -5.89319,1.6533 -10.75973,4.3466 -14.7063,7.7065 -1.14664,6.0665 -0.90664,12.4797 0.98664,18.7195 -0.65332,4.2932 -0.0533,8.8531 2.55994,13.2397 17.70622,30.2659 77.38473,69.7449 110.3839,43.3056 0.87998,-14.493 -10.70639,-29.6793 -21.35946,-40.8924"
     style="fill:#824b2f;fill-opacity:1;fill-rule:nonzero;stroke:none;stroke-width:0.13333"
     id="path15" />
  <path
     d="m 2187.0161,2270.8008 c -0.2666,0.013 -0.5333,0.093 -0.7999,0.12 -0.04,0.9599 -0.1867,1.9732 -0.48,3.0799 -1.0267,4.0932 -2.76,8.4264 -4.9999,12.6663 2.1999,12.2264 -13.813,26.8394 -22.4928,32.2926 -8.4264,5.3065 -17.0929,8.0931 -26.4126,7.1331 0.2533,3.0399 1.9732,6.5865 4.9332,7.4665 11.9197,3.5066 22.7061,0.6933 33.1325,-5.8532 8.6798,-5.4665 24.6927,-20.0795 22.4927,-32.2925 2.24,-4.2399 3.9733,-8.5731 4.9999,-12.6664 2.12,-8.0398 -2.4666,-12.4663 -10.3731,-11.9463"
     style="fill:#4f292a;fill-opacity:1;fill-rule:nonzero;stroke:none;stroke-width:0.13333"
     id="path16" />
  <path
     d="m 2158.2435,2318.9596 c 8.6798,-5.4532 24.6927,-20.0662 22.4928,-32.2926 2.2399,-4.2399 3.9732,-8.5731 4.9999,-12.6663 0.2933,-1.1067 0.44,-2.12 0.48,-3.0799 -12.9197,1.1599 -25.2794,10.2664 -34.4258,18.8662 -9.8398,9.2931 -18.7062,20.9061 -20.0395,34.7591 -0.053,0.48 0.04,1.0266 0.08,1.5466 9.3197,0.96 17.9862,-1.8266 26.4126,-7.1331"
     style="fill:#824b2f;fill-opacity:1;fill-rule:nonzero;stroke:none;stroke-width:0.13333"
     id="path17" />
  <path
     d="m 1687.0686,298.47674 c 0.3734,0.53332 0.8534,0.97331 1.24,1.49329 2.0133,-1.11997 4.2666,-2.10661 6.8798,-2.90659 9.6265,-2.99993 20.6129,-4.89321 32.0392,-5.63986 22.1195,-19.77284 71.8782,-5.46653 93.851,5.38653 21.3195,10.50641 37.8391,24.67939 47.5455,44.82555 5.8665,-4.31989 10.9331,-12.22636 9.0398,-19.35952 -7.7732,-28.65261 -26.9993,-47.10549 -53.372,-60.11849 -21.9728,-10.83973 -71.7316,-25.15938 -93.851,-5.38654 -11.4264,0.74665 -22.4128,2.63994 -32.0392,5.6532 -19.0129,5.74652 -22.2928,20.62615 -11.3331,36.05243"
     style="fill:#4f292a;fill-opacity:1;fill-rule:nonzero;stroke:none;stroke-width:0.13333"
     id="path18" />
  <path
     d="m 1821.0786,296.81011 c -21.9728,-10.85306 -71.7315,-25.15937 -93.851,-5.38653 -11.4263,0.74665 -22.4127,2.63993 -32.0392,5.63986 -2.6132,0.79998 -4.8665,1.78662 -6.8798,2.90659 18.5329,24.82605 52.532,38.59904 81.4646,46.45218 31.2126,8.42645 65.9451,11.9197 95.811,-2.67994 1.0266,-0.49332 2.0266,-1.3733 3.0399,-2.10661 -9.7064,-20.14616 -26.226,-34.31914 -47.5455,-44.82555"
     style="fill:#824b2f;fill-opacity:1;fill-rule:nonzero;stroke:none;stroke-width:0.13333"
     id="path19" />
  <path
     d="m 2677.4705,1591.1244 c -9.0664,-14.8796 -23.746,-20.6261 -38.7323,-19.7728 5.3199,3.2266 10.0931,7.7598 13.8663,13.9463 33.2392,54.492 32.2659,143.1031 -10.0131,193.6085 -16.0662,19.1595 -36.2657,33.0792 -59.5852,37.3457 -6.4798,4.3199 -13.3196,6.4532 -20.1061,6.9465 13.533,7.6532 30.1859,8.7331 44.9855,-1.12 23.3061,-4.2665 43.5056,-18.1862 59.5719,-37.3457 42.2922,-50.5054 43.2656,-139.1165 10.013,-193.6085"
     style="fill:#4f292a;fill-opacity:1;fill-rule:nonzero;stroke:none;stroke-width:0.13333"
     id="path20" />
  <path
     d="m 2642.5914,1778.9064 c 42.279,-50.5054 43.2523,-139.1165 10.0131,-193.6085 -3.7732,-6.1865 -8.5464,-10.7197 -13.8663,-13.9463 -12.853,0.7333 -25.9327,6.3065 -35.9325,15.3463 -18.7995,17.0395 -29.3059,37.3724 -38.5857,59.0785 -18.4928,28.3726 -30.9592,62.3051 -33.0391,81.9579 -1.6667,15.2263 -0.64,34.1859 4.7065,51.1854 0.3733,2.76 0.6667,5.5466 1.1867,8.2798 2.9199,15.5463 12.973,28.7326 25.826,35.9991 6.7865,-0.4933 13.6263,-2.6266 20.1061,-6.9465 23.3195,-4.2665 43.519,-18.1862 59.5852,-37.3457"
     style="fill:#824b2f;fill-opacity:1;fill-rule:nonzero;stroke:none;stroke-width:0.13333"
     id="path21" />
  <path
     d="m 2711.7897,2452.1429 c -1.12,-1.6666 -2.5333,-2.7066 -4.1066,-3.3199 1.16,5.5332 -4.0932,11.4264 -8.5064,14.1596 -1.0533,0.6267 -2.0666,1.0933 -3.0933,1.5733 -0.36,0.6533 -0.6933,1.3067 -1.08,1.9466 -2.9066,4.4666 -7.0264,8.3332 -12.4796,9.1998 -0.8267,0.1467 -1.7067,0.12 -2.5733,0 0,0.053 -0.013,0.093 -0.027,0.1467 -0.68,4.5865 4.1599,6.5865 7.8398,5.9732 5.4532,-0.8667 9.5731,-4.7333 12.4797,-9.2132 0.3867,-0.6266 0.72,-1.2799 1.0933,-1.9332 1.0133,-0.48 2.0266,-0.9467 3.0933,-1.5733 5.1598,-3.1999 11.5464,-10.7331 7.3598,-16.9596"
     style="fill:#4f292a;fill-opacity:1;fill-rule:nonzero;stroke:none;stroke-width:0.13333"
     id="path22" />
  <path
     d="m 2682.5238,2475.7023 c 5.4532,-0.8666 9.573,-4.7332 12.4796,-9.1998 0.3867,-0.6399 0.72,-1.2933 1.08,-1.9466 1.0267,-0.48 2.04,-0.9466 3.0933,-1.5733 4.4132,-2.7332 9.6664,-8.6264 8.5064,-14.1596 -2.8266,-1.1333 -6.1865,-0.8667 -9.3997,-0.1734 -8.2665,1.7867 -17.1196,9.3998 -16.5063,18.4396 -0.84,2.7333 -1.3866,5.5865 -1.8266,8.6131 0.8666,0.12 1.7466,0.1467 2.5733,0"
     style="fill:#824b2f;fill-opacity:1;fill-rule:nonzero;stroke:none;stroke-width:0.13333"
     id="path23" />
  <path
     d="m 2318.0529,1264.7859 c 15.2796,-14.5596 40.5056,-11.5464 54.1053,3.8666 4.6532,5.2932 6.3198,11.613 5.7465,17.6395 5.0932,-8.3464 5.2799,-19.5595 -2.2533,-28.1326 -13.5996,-15.3996 -38.8123,-18.4262 -54.1053,-3.8666 -2.3866,-0.28 -6.2132,3.2533 -5.6665,5.7466 0.067,0.2933 0.1733,0.5999 0.2666,0.8666 -1.1866,2.0133 -2.0132,4.1066 -2.4532,6.1865 1.2133,-1.3999 2.9999,-2.4799 4.3599,-2.3066"
     style="fill:#4f292a;fill-opacity:1;fill-rule:nonzero;stroke:none;stroke-width:0.13333"
     id="path24" />
  <path
     d="m 2319.9862,1280.9588 c 2.8932,1.84 5.9731,3.1466 9.0797,4.1733 7.1998,7.5864 16.6929,12.6663 27.8527,12.7997 9.3197,0.1333 16.7995,-4.7866 20.9861,-11.6398 0.5733,-6.0265 -1.0933,-12.3463 -5.7465,-17.6395 -13.5997,-15.413 -38.8257,-18.4262 -54.1053,-3.8666 -1.36,-0.1733 -3.1466,0.9067 -4.3599,2.3066 -1.0667,5.0932 0.4133,10.1331 6.2932,13.8663"
     style="fill:#824b2f;fill-opacity:1;fill-rule:nonzero;stroke:none;stroke-width:0.13333"
     id="path25" />
  <path
     d="m 1906.1698,725.95938 c 26.0127,-24.74604 68.8916,-19.62617 92.0111,6.57317 7.9331,9.01311 10.7597,19.74618 9.7864,29.99925 8.6531,-14.18631 8.9731,-33.2525 -3.8533,-47.8388 -23.1194,-26.18601 -65.9983,-31.30589 -91.9977,-6.57317 -4.0665,-0.47999 -10.5597,5.54653 -9.6264,9.77309 0.1067,0.50665 0.3067,1.02664 0.4533,1.47996 -2.0266,3.42658 -3.4265,6.97316 -4.1732,10.51974 2.0666,-2.38661 5.1066,-4.21323 7.3998,-3.93324"
     style="fill:#4f292a;fill-opacity:1;fill-rule:nonzero;stroke:none;stroke-width:0.13333"
     id="path26" />
  <path
     d="m 1909.4764,753.46536 c 4.9199,3.13326 10.1464,5.34654 15.4263,7.10649 12.2397,12.90635 28.386,21.54613 47.3721,21.74612 15.8396,0.22667 28.5727,-8.13313 35.6925,-19.78617 0.9733,-10.25307 -1.8533,-20.98614 -9.7864,-29.99925 -23.1195,-26.19934 -65.9984,-31.31921 -92.0111,-6.57317 -2.2932,-0.27999 -5.3332,1.54663 -7.3998,3.93324 -1.8133,8.65312 0.7067,17.22623 10.7064,23.57274"
     style="fill:#824b2f;fill-opacity:1;fill-rule:nonzero;stroke:none;stroke-width:0.13333"
     id="path27" />
  <path
     d="m 1357.3969,3275.3356 c 13.4796,0 27.4926,2.1733 42.0923,7.5332 50.2387,18.4395 97.6775,48.4254 143.5564,77.4114 15.7329,9.9464 31.9858,20.2128 47.9454,29.7326 l 1.92,1.3466 c 5.6665,4.5332 12.5863,9.0265 19.9062,13.7997 18.9462,12.3197 40.4256,26.2793 49.1054,47.7588 4.2266,10.4264 7.9065,21.0661 11.4664,31.3459 6.3465,18.3328 12.3463,35.6524 21.0661,51.5187 28.3326,51.612 87.6912,88.8244 162.8493,102.0908 54.252,9.573 111.0105,6.9864 165.8758,4.4932 l 126.7035,-5.7599 c 31.7992,-1.4533 67.8383,-3.0799 95.3843,-19.6928 22.1728,-13.373 40.3857,-37.4124 54.132,-71.4516 6.7465,-16.7062 11.893,-33.8791 17.3196,-52.052 4.3732,-14.613 8.8931,-29.7326 14.3329,-44.5456 6.9599,-18.9728 15.6397,-37.7857 25.7994,-55.9452 l 3.1866,-5.6932 6.1465,-2.1333 c 18.7329,-6.4798 34.8791,-12.1464 46.9322,-16.3729 12.093,-4.2399 20.1461,-7.0532 22.6927,-7.8665 13.7197,-4.3732 25.3861,-19.7328 37.7457,-35.9858 13.0664,-17.2129 26.5994,-35.0124 45.8922,-43.9989 23.4261,-10.9064 47.0922,-22.3727 69.9716,-33.4658 58.3452,-28.2793 118.677,-57.5052 181.3022,-80.5046 l 7.7198,-2.8266 7.0264,4.2399 c 83.4513,50.3854 198.2618,-17.8796 274.2332,-63.0651 l 5.4665,-3.24 c 103.4641,-61.4517 207.9682,-160.1559 319.4854,-301.7791 l 1.9999,-2.5199 c 25.586,-32.4659 31.6659,-40.1723 38.9324,-79.3447 1.9733,-10.6797 4.9999,-20.8795 8.9864,-30.3326 4.0799,-9.6264 11.4397,-19.1195 18.5462,-28.2926 6.5199,-8.3865 13.9063,-17.9062 15.7863,-24.2394 0.4267,-1.7199 1.1733,-8.7864 1.7866,-14.4796 3.2799,-30.5193 6.8932,-56.9319 17.9062,-71.1049 36.9724,-47.5455 78.0914,-92.731 117.8638,-136.4366 40.6256,-44.6656 82.6512,-90.8511 120.157,-139.4632 17.5862,-22.7861 43.2655,-40.6123 74.2514,-51.5454 72.5449,-25.626 218.8212,-256.5935 201.5283,-421.0694 l -0.08,-1.2533 c -4.1865,-135.6766 -86.3045,-200.715 -181.3821,-276.0331 -86.1312,-68.225 -183.7687,-145.5564 -220.8612,-288.8728 -4.5598,-17.5729 -13.333,-34.4125 -25.4126,-48.6921 -72.7582,-86.1179 -133.8234,-162.0893 -181.5155,-225.78105 -13.0397,-17.4129 -22.3728,-37.71906 -27.7327,-60.34516 -2.2266,-9.34643 -4.6932,-18.6262 -7.3598,-27.57265 -4.8665,-16.30625 -10.813,-32.79918 -17.6662,-49.0121 -3.9866,-9.43977 -7.0131,-19.63951 -8.9864,-30.33258 -6.5599,-35.31912 -17.7063,-80.43799 -45.8256,-116.15709 C 3249.3496,631.33508 3163.8584,594.14935 3081.1805,558.19024 2959.6502,505.33823 2834,450.67293 2823.6802,355.28865 2811.9339,246.5847 2764.6817,176.50645 2674.9906,134.7475 c -12.813,-5.97319 -30.3059,-15.02629 -50.5721,-25.50603 -37.719,-19.519513 -84.6645,-43.812239 -114.5304,-54.505305 -6.9465,-2.493271 -12.613,-4.946543 -17.8262,-7.746473 -7.6799,-4.119897 -78.8647,-38.3723742 -210.8481,26.359341 -43.5989,21.372799 -92.8644,22.706099 -135.17,3.639909 -22.6927,-10.213078 -41.7323,-13.293001 -70.5582,-17.946218 -15.7863,-2.559936 -33.6792,-5.439864 -56.2653,-10.13308 -140.9298,-29.225936 -309.5522,-5.146538 -462.6417,66.118346 -92.0777,42.8656 -177.7289,75.53145 -249.3671,101.83745 -31.5192,11.57305 -58.0252,15.01296 -83.6646,18.34621 -45.6789,5.93319 -92.9043,12.06637 -176.4889,67.01166 -30.6393,20.14616 -62.46513,39.46568 -93.25103,58.13188 -97.74422,59.31852 -190.07524,115.33045 -257.55356,201.02164 -45.42553,57.69189 -79.838,130.93006 -87.6778,186.582 0.57331,41.74563 -10.7064,78.9447 -32.61252,107.77064 -36.71908,48.31879 -76.29143,92.21103 -114.54381,134.64997 -49.11877,54.47866 -99.90416,110.82386 -145.41503,177.32886 -23.35941,34.1059 -43.39091,71.5583 -59.53717,111.3039 -15.83828,38.9724 -46.8335,70.3983 -85.04321,86.1979 -96.261596,39.8123 -117.262404,134.6633 -134.719301,254.5269 -1.289301,8.8665 -1.597293,17.9996 -0.907977,27.1727 1.710624,22.8394 2.345275,48.3455 3.027924,75.3314 1.979951,79.0781 4.225228,168.6892 34.479138,220.8612 l 2.113281,3.6399 0.05867,1.3733 c 10.92506,11.2797 67.392975,31.9459 105.201365,45.7989 88.23913,32.3058 121.90229,46.7054 125.27153,69.9715 15.57828,107.704 50.64674,201.995 104.23207,280.2864 45.53219,66.5183 100.46415,126.8501 153.59616,185.2087 48.91877,53.7453 99.51751,109.3172 142.78309,169.7024 11.69304,16.3196 17.07958,33.0258 22.29278,49.1721 2.49327,7.6665 4.82654,14.9063 7.81314,22.0928 1.57329,3.7865 4.37322,8.4531 7.33315,13.3996 5.93318,9.8665 12.65301,21.0395 14.33297,33.1725 9.09311,64.7184 16.29293,115.8638 -4.65322,185.0221 -16.19959,53.492 100.18417,144.8764 149.88959,183.9021 6.31984,4.9598 12.02637,9.453 16.91958,13.3863 60.30516,48.4654 162.18259,84.7845 236.56739,111.3039 l 9.3065,3.3199 c 36.479,13.0263 69.3049,-0.76 104.064,-15.3463 26.346,-11.0664 55.1853,-23.1728 86.9712,-23.1728 z m 589.3319,403.59 c -31.7192,0 -63.6517,-1.7333 -95.3709,-7.3465 -85.4246,-15.0796 -153.5562,-58.5719 -186.9154,-119.317 -10.1064,-18.4129 -16.8662,-37.9324 -23.3994,-56.7986 -3.5732,-10.3331 -6.9465,-20.0795 -10.8397,-29.7059 -4.6532,-11.4931 -20.6128,-21.8662 -36.0524,-31.9059 -7.3465,-4.7866 -14.933,-9.7198 -21.6928,-15.0263 -15.9996,-9.5731 -32.1059,-19.7595 -47.6922,-29.5993 -44.3722,-28.0393 -90.251,-57.0385 -137.0765,-74.2248 -36.3458,-13.3463 -67.705,-0.1866 -104.0108,15.0663 -37.4257,15.7196 -79.8646,33.5192 -128.8368,16.0263 l -9.2797,-3.3199 c -80.958,-28.866 -181.71548,-64.7718 -246.52719,-116.8771 -4.79988,-3.8533 -10.39974,-8.2531 -16.61292,-13.1197 -89.26443,-70.0916 -182.71543,-150.7296 -161.50263,-220.7545 18.75953,-61.9451 12.35969,-107.4106 3.50658,-170.369 -0.73331,-5.2266 -5.53319,-13.2264 -9.77309,-20.2929 -3.46658,-5.7865 -7.06649,-11.773 -9.59976,-17.8795 -3.51991,-8.4665 -6.18651,-16.7196 -8.77311,-24.7061 -4.61322,-14.2796 -8.95978,-27.7726 -17.54623,-39.7456 C 636.62824,2660.2577 586.72282,2605.4457 538.45736,2552.4337 484.55204,2493.2085 428.80677,2431.9834 381.94127,2363.5051 325.74534,2281.4138 288.89293,2183.0296 272.40001,2071.0458 262.0896,2060.1794 206.223,2039.7132 168.90393,2026.0469 83.579397,1994.8077 47.576297,1979.6214 42.120434,1957.5019 8.9732625,1897.6368 6.6519872,1804.9991 4.6000385,1723.1078 3.9387217,1696.5485 3.3094041,1671.4557 1.6587787,1649.4696 0.78280065,1637.8033 1.1774574,1626.1369 2.8347493,1614.8038 21.220956,1488.527 45.61768,1380.1964 158.34019,1333.5842 c 29.79126,-12.333 54.00132,-36.9191 66.40901,-67.4517 17.07024,-42.0122 38.27104,-81.6246 63.00776,-117.7703 46.80016,-68.385 98.35754,-125.5836 148.23629,-180.90219 37.78573,-41.91895 76.86475,-85.27787 112.71719,-132.43669 17.23956,-22.69276 26.10601,-52.55868 25.65269,-86.39784 -0.0267,-1.90662 0.08,-3.73324 0.33332,-5.46653 10.45307,-74.3448 57.5319,-155.80943 94.6643,-202.95492 71.31822,-90.55774 170.63574,-150.83623 266.68667,-209.11477 30.51924,-18.51954 62.07845,-37.66573 92.21098,-57.46523 90.1578,-59.27852 143.6631,-66.22502 190.8886,-72.3582 24.8527,-3.22658 48.3455,-6.27984 76.2648,-16.53292 70.9715,-26.05268 155.7827,-58.39854 246.7138,-100.744143 159.6493,-74.3048092 336.0583,-99.304184 484.0412,-68.598285 21.8528,4.53322 39.3457,7.359816 54.7853,9.853087 30.3726,4.906544 52.3321,8.453122 79.158,20.546153 32.9859,14.852962 71.6383,13.692991 106.0374,-3.186587 144.2497,-70.758231 226.9677,-33.8791532 242.0873,-25.786022 3.6799,1.973284 7.8798,3.786572 13.1996,5.693191 32.0126,11.46638 80.0914,36.345758 118.7171,56.331925 19.9328,10.306409 37.1324,19.212853 49.2787,24.866041 101.6375,47.31882 155.1162,126.09018 168.2892,247.90047 8.1731,75.61145 124.5569,126.23685 237.114,175.19562 90.5445,39.38568 176.0756,76.58475 217.6346,129.35677 32.7592,41.59896 45.3189,91.9177 52.5854,131.10339 1.5333,8.26646 3.8399,16.09293 6.8665,23.25275 7.3331,17.35957 13.7063,35.03912 18.9328,52.54535 2.8533,9.5731 5.4932,19.47952 7.8665,29.4526 4.2799,18.03955 11.613,34.10581 21.8261,47.73214 47.2788,63.15844 107.944,138.59654 180.2622,224.20774 15.3729,18.1862 26.5726,39.6923 32.3992,62.2118 34.2258,132.1833 123.0635,202.5549 208.9814,270.6065 97.4109,77.1581 189.4086,150.0363 194.3285,301.1792 18.1595,176.9689 -132.57,423.9094 -224.2611,456.2952 -25.0927,8.8665 -44.7989,22.3728 -58.5319,40.1724 -38.359,49.7187 -80.8513,96.4242 -121.9436,141.5831 -39.3323,43.2256 -79.998,87.9311 -116.1571,134.4233 -5.9465,7.6398 -9.4131,39.959 -10.893,53.7453 -1.1867,11.0531 -1.8133,16.5329 -3.0266,20.6128 -3.7199,12.4664 -12.773,24.1328 -21.5328,35.4391 -5.7732,7.4399 -11.7331,15.133 -14.0663,20.6395 -3.0266,7.1465 -5.3332,14.973 -6.8532,23.2261 -8.8264,47.4922 -18.8662,60.2385 -45.7189,94.3043 l -1.9866,2.52 c -114.1704,144.983 -221.7544,246.3938 -328.8984,310.0189 l -5.4532,3.2399 c -81.0113,48.1588 -202.435,120.3437 -302.0858,67.1183 -58.4385,21.9861 -115.5038,49.6388 -170.7557,76.4248 -23.0128,11.1464 -46.7989,22.6661 -70.4649,33.6925 -11.5997,5.3998 -22.0395,19.1328 -33.0792,33.6658 -14.333,18.8529 -30.5726,40.239 -54.612,47.9055 -2.4532,0.7733 -10.173,3.4932 -21.7594,7.5464 -10.7198,3.7599 -24.6794,8.6665 -40.8123,14.253 -7.9465,14.8263 -14.813,30.0526 -20.4395,45.3855 -5.0666,13.8264 -9.4398,28.426 -13.6664,42.559 -5.4132,18.1195 -11.0263,36.8657 -18.3728,55.0653 -16.5863,41.0656 -39.5324,70.6515 -68.1983,87.9311 -34.9991,21.0928 -77.4248,23.0261 -111.5172,24.5727 l -126.6902,5.7599 c -25.6927,1.1733 -51.7854,2.3733 -78.0114,2.3733"
     style="fill:#000000;fill-opacity:1;fill-rule:nonzero;stroke:none;stroke-width:0.13333"
     id="path28" />
</svg>
